<mxfile host="Electron" modified="2025-09-07T04:47:44.318Z" agent="Mozilla/5.0 (Windows NT 10.0; Win64; x64) AppleWebKit/537.36 (KHTML, like Gecko) draw.io/24.6.4 Chrome/124.0.6367.207 Electron/30.0.6 Safari/537.36" etag="4e5R2Q4J1nQgi-eUQW6x" version="24.6.4" type="device">
  <diagram name="第 1 页" id="ugVXUMfo_4fND_PZiK5P">
    <mxGraphModel dx="1383" dy="797" grid="1" gridSize="10" guides="1" tooltips="1" connect="1" arrows="1" fold="1" page="1" pageScale="1" pageWidth="827" pageHeight="1169" math="0" shadow="0">
      <root>
        <mxCell id="0" />
        <mxCell id="1" parent="0" />
        <mxCell id="VO9uvYtOyiIi0N9G-no1-1" value="" style="shape=image;verticalLabelPosition=bottom;labelBackgroundColor=default;verticalAlign=top;aspect=fixed;imageAspect=0;image=data:image/png,iVBORw0KGgoAAAANSUhEUgAAAp4AAAGrCAYAAABpKZcQAAAAAXNSR0IArs4c6QAAAARnQU1BAACxjwv8YQUAAAAJcEhZcwAADsMAAA7DAcdvqGQAABo6SURBVHhe7d1rkN1lfQfwZxNQbiVAQjbJ5kKE5RIkQLmKsY5RseNUyxRp6iBUq1O1M1rf+KKMnTJjX9uxoy+01ar1hePUF2U6g4hGcMKABVTQCggKuZBwl4BchgDpef57NrvZPWfD5fz+53k2n8/wDOeeZDf5Pt/9n/9vd+T444/fmwCAaux9zTv33j7Pnbhx//t63TZp/xtf++9nOEZGuhf2mXXDtMdM3dfrtkkT982+/ZWY/fuZvzrFc2llf10OTmNjY+lNb3pTGh1dml54YU+65ppruvcAvH5nnXVmOvXU09Ib3vCG9NJLL6Vt27alW265Je3Zs6f7COoztb33L4avpohmr+Q1e3lVDx6AV97k9i99+z/vtRbNuV7zYJU7zJlnnql4lmjlyrF02GGHp4ce2pX+8IdnmuubNv1VGh8/KS1ZsiQ9+uij6ZOf/LvuowFenaVLl6ZFixalxx57LP3+979Pq1evTh//+N+mtWvXpnvvvTedeOKJaffu3emrX/23dMcdd3Sfxfwxse33K5xzFdFs7sI5550F6F8CD1QW+xXNucrpweqoo45My5YtT88//1zasePB5rbPfObv04UXXphGli4dLf1vyUEnbwCrVq1O3/ve99LPf/7ztGLF8vSe9/xpWrz4uPSOd7wj7dr1UPrYxz7WffSEiy56Szr33HM7m8iT6ZhjFqUFCxak7dt3pOOPX5IOP/zwZoO59tpr0/Lly9Nb3nJROvLII9KLL76Y7rvvt2nz5s3phRde6L4SMN9ddtkH0jnnnNP82//BD65PGzduTB/60OXp4YcfTl//+n+kT3/6U00J/da3/jN997vfbZ5z2mmnNY979tlnO5lyWHNkdOfOXc0Gc/TRR6ennnq6eb3s7W//k3Tssceml19+ucmhn/zkxvT440809zEs/QrlpIk75yqdcz8/O+ADCjF3QZyrSL6SktmvoB5Mzj777HTppZd2/v1vS1/5yleb26644oqmnyw86qijrs4fJKuc9cEPfjCdccab0y9/+av0u9/9Nj333PNp69at6ZBDDkkXXHBB5/pz6Zpr/nu/57zrXe9OH/jApc2RjBz2F110URofH+8859B08snj6ayzzuoU1l3p3e++OG3Y8NbOJvB4Ov3009Mpp5ycHnjggWbDmf56lmXN3/Xe9743ve1tb+vkyrZ0xx2/aN5Ov/fe+9Ktt/5veumlF5ucWLhwYfrRj37YvOWen3P22X/c2Tg+lE444YQmky644PxOhqxLRxxxROeL47Hm+tNPP5XWrz+jef1cUFetWtW8hf/oo481WTbz92G9/vXKjXQeP3N172rkK/3u73XfxP3T1+TjSl8zf98z/1z5MRNr9v3T78tm3j/1mFdm4vnzb51xxvp0ySV/3vliZW+6/vofNLft3LkzLViwMC3oPCT/0a0C1iWXXJI+//l/7hTFk1PnC4J02WWXpc997h87n8Az0hNPPNH5xI2kQw89tLMOmfXcvEnk+3LY5yMW+f/5NW644cdNsTzmmGOa80SPO+645vLo6Gh67LHH00033ZQeeujhWa9nWdb8W+9857vS1Vdfnc4///z0xje+sXN9Y3P91FNPTT/96U+bTLj88subd1l+9rOfdUrpnfuem99FyRmTv7D95je/mR555NHm7frbbrst3XXXr9ORRx7ZFNBFi45pjnbmL4JzDuXX/c1vfrPf78Ma3JpZenqvziO7a3+9Hjv9Qb3v7/zXXfmxU2v248pcs3/PnUvN2v9xeU08bsKB7s/yTVNr9uNnronnz5+Vz+P87Gc/2/SX3EFyn8m95iMf+UiTLzt27EgL8p/bKmPlt8SPPfaY5iuEXCTzbfmwdC6a+XIO/nzUc+HCievT1+R9+e3z++//XXrppZeb18mbQz46kTeM/LxvfOMbacuWm9LixYubI6HnnXdes0HMfD3LsubfymUzf+E5mTH5//l6vn3ZstH0iU98vHm3JJfFb3/7280RzMnnTmbMyy/v7Xwxe3/as+eF5rb8FvozzzzbzaaF6Tvf+U669trvp8MOOyyddNJ485bb2rUn7Pf7sAa7Diw/aGLNLj+zX2P2YyYeN2Wu16trTf+zTMo3937slHx1Ys18zPQ1t4nnz6+Vj2jmL0jz5cmMyb0mf0G6fv365h0SRzwLWtdf/8P0hS/8S6csPtIcVbjhhhvTl7705XTXXXc39+e/1PkTmdfM5+bbJoN/+vXJ5+TL+Wjnpk1/2fmKZG368Y9vaN6yz0dTTzrppFmvZ1nW/Fs333xz+uIX/7U5tzvnwp133tlcv/vuu5sjEvkczvzW+i9+cUdasWJFWrPmhH3PnZk/k5enZ0z+f86YM89c35yfngck161b11mn73sda/Arfw7mXp1HTVv76/UavR478zEHWlOvUcbq9XvsvTqPnvgjd+SrU2vmY/KaMvW4ybX/685cnUfMu/Xggw82Q4m5v+Qek/tM7jU33nhj+uhH/6YZMOoUT0qRz7u8//77O2H9UPP2986dDzbndj7zzDPN/ZNHHPKaaepoaN4U0r7LCxZMbQq5aOa/BMuWLUvvf//7mkGj++67L912263Nc4D57cknn2xOvckZk8/5zitfz1PtuXTmIxWnnHJK+vCH/zpdddVV6X3v+7PuM2fnz2Su5Nun509+zXwU9eKLL27eZsvDRbfeKmOGa/9yMLsEdW7Nd+0z12Pzmnj85Opt4vnlrNlm/jl6/Vk7t05bE/LNE2uux+Z18Hn++ec7/+a3N/0l95icNbnX3H33XelXv/q/tHLlyjSyfPmKWsbQDhr5/Mv8NtXjjz/WfDulSXlyNN/34ot7Op/IB7q3TsjfZilPvT/77HPNJz2/tZUPeedNID9v0aKjm7fE8vfny4/Lb7vnQ+C51O7atbN5+ww4OOS8yOdf5SKa12S2LFy4/7GIJ5/c3Wwc2cz8yYNDOafyYGKecM+5snv3U815nflUnnxbljeinEO+c0a02RneifjXYerJr+916tV0yX1ee5Hc/3Umze9imr/bxeLFS5p//zkjsvyFbc4exRMADjoTW/+gyulchlVcexe+XgZRKud3kRwkb7UXaPnysc5XC3/UvQYwWDljRkdXdK9xcMpFaf+3iqfWRKHKa24Tr3Gg1fvXiF+9fi+9V3/5ZabWXL8G0+VhopwzvYysWDHmiGdh1q1bn7Zv35qefnp39xaAwVm9em3as+fFtGvX9u4tzB+9t/TYo44HfvG2j3o2nfCA4gpj/1//4Cipxx67OC1dOpruuefX3VumOOJZoHyiPkCUvCm+so2Z+uRP7OzV62hd57996/WZ+nX6rd6/ftzq9XuYvV67/EtMrVfz6x88RkZ6dxkNp1DN31uAAFMbIwe3yb8Hs4vT1Mp/XybWwWL6n7n3xyR/MKYvemk+TD2MrD/zXG+1AwAz9KgHczSGWsrEnFWx553K5SCNnLf2dMWzMOecc2G6/fZbutfmp17/jN98+LJ03e57uteAKBs2bExbtmzuXgMYvH454612AABaoXgCANAKxbNAO3fu6F4CGLytW+/vXgKI0S9nFM8C7dqleAJxtm9XPIFY/XJG8SzQ8hUru5cABi9/A3mASP1yRvEs0IrliicQR/EEoimeAAAM1bwpnl/72r93LzFIbX9cr7vu+91LAMB844hngUy1A5FMtQPRTLVXxFQ7EMlUOxDNVHtFTLUDkQwXAdEMF1XEVDsQSfEEoimeAAAMleIJAEArFM8CmWoHIplqB6KZaq+IqXYgkql2IJqp9oqYagciGS4CohkuqoipdiCS4glEUzwBABgqxRMAgFYongUy1Q5EMtUORDPVXhFT7UAkU+1ANFPtFTHVDkQyXAREM1xUEVPtQCTFE4imeAIAMFSKJwAArVA8C2SqHYhkqh2IZqq9IqbagUim2oFoptorYqodiGS4CIhmuKgiptqBSIonEE3xBABgqBRPAABaoXgWyFQ7EMlUOxDNVHtFTLUDkUy1A9FMtVfEVDsQyXAREM1wUUVMtQORFE8gmuIJAMBQKZ4AALRC8SyQqXYgkql2IJqp9oqYagcimWoHoplqr4ipdiCS4SIgmuGiiphqByIpnkA0xRMAgKFSPAEAaIXiWSBT7UAkU+1ANFPtFTHVDkQy1Q5EM9VeEVPtQCTDRUA0w0UVMdUORFI8gWiKJwAAQ6V4AgDQCsWzQDsNFwGBtm0zXATE6pczimeBdvl2SkAgxROIpnhWxFQ7EMlwERDNcFFFTLUDkRRPIJriCQDAUCmeAAC0QvEskKl2IJLhIiCa4aKKmGoHIimeQDTFsyLLDRcBgVatMlwExOqXM4pngVb4dkpAoDVrFE8gVr+cUTwBAGiF4gkAQCsUzwKZagciGS4CohkuqoipdiCS4glEUzwr4me1A5H8yEwgmh+ZWRE/qx2IpHgC0RRPAACGSvEEAKAVimeBTLUDkQwXAdEMF1XEVDsQSfEEoimeFTHVDkQyXAREM1xUEVPtQCTFE4imeAIAMFSKJwAArVA8C2SqHYhkuAiIZrioIqbagUiKJxBN8ayIqXYgkuEiIJrhooqYagciKZ5ANMUTAIChUjwBAGiF4lkgU+1AJMNFQDTDRRUx1Q5EUjyBaIpnRUy1A5EMFwHRDBdVxFQ7EEnxBKIpngAADJXiCQBAKxTPAplqByIZLgKiGS6qiKl2IJLiCUTrlzMjd26+eW/3MrRmpPv/6V6+95G08K0ndq8BAPPNyHlrT1c8C3POORem22+/pXttfupVPN98+LJ03e57uteAKBs2bExbtmzuXgMYvH454612AABaoXgCANAKxbNAptqBSIaLgGim2itiqh2IpHgC0RTPiqxZc1L3EsDgjY+v614CiNEvZxTPAi1ZsqR7CWDwRkeXdS8BxOiXM4onAACtGNm06UrfxxMAgHCOeAIA0IqRsbGVjngWxk8VASLJGCCan1wEAMBQKZ4AALRC8SzQ1q2+uTMQR8YA0frljHM8AQBohSOeBVq9em33EsDgyRggWr+cUTwLZFMAIskYIJriCQDAUM3L4vlfV13RvcSgtPkx9fkDSienYrT9cfV5bJ8jngUycQpEkjFAtH45o3gWaPt2mwIQR8YA0frljOJZICf+A5FkDBDNcFFFbApAJBkDRFM8AQAYKsUTAIBWKJ4FMnEKRJIxQDRT7RUxcQpEkjFANFPtFXHiPxBJxgDRDBdVxKYARJIxQDTFEwCAoVI8AQBoheJZIBOnQCQZA0Qz1V4RE6dAJBkDRDPVXhEn/gORZAwQzXBRRWwKQCQZA0RTPAEAGCrFEwCAViieBTJxCkSSMUA0U+0VMXEKRJIxQDRT7RVx4j8QScYA0QwXVcSmAESSMUA0xRMAgKFSPAEAaIXiWSATp0AkGQNEM9VeEROnQCQZA0Qz1V4RJ/4DkWQMEM1wUUVsCkAkGQNEUzwBABgqxRMAgFYongUycQpEkjFANFPtFTFxCkSSMUA0U+0VceI/EEnGANEMF1XEpgBEkjFANMUTAIChUjwBAGiF4lkgE6dAJBkDRDPVXhETp0AkGQNEM9VeESf+A5FkDBDNcFFFbApAJBkDRFM8AQAYKsUTAIBWKJ4F2rbNif9AHBkDROuXM4pngWwKQCQZA0RTPCvixH8gkowBohkuqohNAYgkY4BoiicAAEOleAIA0ArFs0BO/AciyRggmuGiitgUgEgyBoimeFZk1Son/gNxZAwQrV/OKJ4FWrPGpgDEkTFAtH45o3gCANAKxRMAgFYongVy4j8QScYA0QwXVcSmAESSMUA0xbMifpwdEEnGANH8yMyK2BSASDIGiKZ4AgAwVIonAACtUDwL5MR/IJKMAaIZLqqITQGIJGOAaIpnRZz4D0SSMUA0w0UVsSkAkWQMEE3xBABgqBRPAABaoXgWyIn/QCQZA0QzXFQRmwIQScYA0RTPijjxH4gkY4BohosqYlMAIskYIJriCQDAUCmeAAC0QvEskBP/gUgyBohmuKgiNgUgkowBoimeFXHiPxBJxgDRDBdVxKYARJIxQDTFEwCAoVI8AQBoheJZICf+A5FkDBDNcFFFbApAJBkDROuXMyM3f/kf9nYvAwBAmJGxsZWKZ2E2bNiYtmzZ3L0GMFgyBojWL2e81Q4AQCsUTwAAWqF4FsiJ/0AkGQNE6ztc5BxPAADa4IhngcbH13UvAQyejAGi9csZxbNAo6PLupcABk/GANH65YziCQBAK0Y2bbrSOZ4AAIRzxBMAgFaYai+QnyoCRJIxQDQ/uQgAgKFSPAEAaIXiWaCtW/1UESCOjAGi9csZ53gCANAKRzwLtHr12u4lgMGTMUC0fjmjeBbIpgBEkjFANMUTAIChmlfFc8dffLR7iUFp82Pq8wfURGbFaOvj6vM3HI54FsjEKRBJxgDR+uWM4lmg7dttCkAcGQNE65czimeBnPgPRJIxQDTDRRWxKQCRZAwQTfEEAGCoFE8AAFqheBbIxCkQScYA0Uy1V8TEKRBJxgDRTLVXxIn/QCQZA0QzXFQRmwIQScYA0RRPAACGSvEEAKAVimeBTJwCkWQMEM1Ue0VMnAKRZAwQzVR7RZz4D0SSMUA0w0UVsSkAkWQMEE3xBABgqBRPAABaoXgWyMQpEEnGANFMtVfExCkQScYA0Uy1V8SJ/0AkGQNEM1xUEZsCEEnGANEUTwAAhkrxBACgFYpngUycApFkDBDNVHtFTJwCkWQMEM1Ue0Wc+A9EkjFANMNFFbEpAJFkDBBN8QQAYKgUTwAAWqF4FsjEKRBJxgDRTLVXxMQpEEnGANFMtVfEif9AJBkDRDNcVBGbAhBJxgDRFE8AAIZK8QQAoBWKZ4FMnAKRZAwQzVR7RUycApFkDBDNVHtFnPgPRJIxQDTDRRWxKQCRZAwQTfEEAGCoFE8AAFqheBZo2zYn/gNxZAwQrV/OKJ4FsikAkWQMEE3xrIgT/4FIMgaIZrioIjYFIJKMAaIpngAADJXiCQBAKxTPAjnxH4gkY4BohosqYlMAIskYIJriWZFVq5z4D8SRMUC0fjmjeBZozRqbAhBHxgDR+uWM4gkAQCsUTwAAWqF4FsiJ/0AkGQNEM1xUEZsCEEnGANEUz4r4cXZAJBkDRPMjMytiUwAiyRggmuIJAMBQKZ4AALRC8SyQE/+BSDIGiGa4qCI2BSCSjAGiKZ4VceI/EEnGANEMF1XEpgBEkjFANMUTAIChUjwBAGiF4lkgJ/4DkWQMEM1wUUVsCkAkGQNEUzwr4sR/IJKMAaIZLqqITQGIJGOAaIonAABDpXgCANAKxbNATvwHIskYIJrhoorYFIBIMgaIpnhWxIn/QCQZA0QzXFQRmwIQScYA0RRPAACGSvEEAKAVimeBnPgPRJIxQDTDRRWxKQCRZAwQrV/OjOz91D/t7V4GAIAwI2NjKxXPwmzYsDFt2bK5ew1gsGQMEK1fznirHQCAViieAAC0QvEskBP/gUgyBojWd7jIOZ4AALTBEc8CjY+v614CGDwZA0TrlzOKZ4FGR5d1LwEMnowBovXLGcUTAIBWjGzadKVzPAEACOeIJwAArTDVXiA/VQSIJGOAaH5yEQAAQ6V4AgDQCsWzQFu3+qkiQBwZA0TrlzPO8QQAoBWOeBZo9eq13UsAgydjgGj9ckbxLJBNAYgkY4BoiicAAEM1r4rnjq+8vXuJQWnzY+rzB9REZg1e/pi29XH1+RsORzwLZOIUiCRjgGj9ckbxLND27TYFII6MAaL1yxnFs0BO/AciyRggmuGiitgUgEgyBoimeAIAMFSKJwAArVA8C2TiFIgkY4BoptorYuIUiCRjgGim2ivixH8gkowBohkuqohNAYgkY4BoiicAAEOleAIA0ArFs0AmToFIMgaIZqq9IiZOgUgyBohmqr0iTvwHIskYIJrhoorYFIBIMgaIpngCADBUiicAAK1QPAtk4hSIJGOAaKbaK2LiFIgkY4Boptor4sR/IJKMAaIZLqqITQGIJGOAaIonAABDpXgCANAKxbNAJk6BSDIGiGaqvSImToFIMgaIZqq9Ik78ByLJGCCa4aKK2BSASDIGiKZ4AgAwVIonAACtUDwLZOIUiCRjgGim2iti4hSIJGOAaKbaK+LEfyCSjAGiGS6qiE0BiCRjgGiKJwAAQ6V4AgDQCsWzQCZOgUgyBohmqr0iJk6BSDIGiGaqvSJO/AciyRggmuGiitgUgEgyBoimeAIAMFSKJwAArVA8C7RtmxP/gTgyBojWL2cUzwLZFIBIMgaIpnhWxIn/QCQZA0QzXFQRmwIQScYA0RRPAACGSvEEAKAVimeBnPgPRJIxQDTDRRWxKQCRZAwQTfGsyKpVTvwH4sgYIFq/nFE8C7RmjU0BiCNjgGj9ckbxBACgFYonAACtUDwL5MR/IJKMAaIZLqqITQGIJGOAaIpnRfw4OyCSjAGi+ZGZFbEpAJFkDBBN8QQAYKgUTwAAWqF4FsiJ/0AkGQNEM1xUEZsCEEnGANEUz4o48R+IJGOAaIaLKmJTACLJGCCa4gkAwFApngAAtELxLJAT/4FIMgaIZrioIjYFIJKMAaIpnhVx4j8QScYA0QwXVcSmAESSMUA0xRMAgKFSPAEAaIXiWSAn/gORZAwQzXBRRWwKQCQZA0RTPCvixH8gkowBohkuqohNAYgkY4BoiicAAEOleAIA0ArFs0BO/AciyRggmuGiitgUgEgyBojWL2dG9v7P5Xu7lwEAIMzI2NhKxbMwGzZsTFu2bO5eAxgsGQNE65cz3moHAKAViicAAK1QPAvkxH8gkowBovUdLnKOJwAAbXDEs0Dj4+u6lwAGT8YA0frljOJZoNHRZd1LAIMnY4Bo/XJG8QQAoBUjmzZd6RxPAADCOeIJAEArTLUDANAKRzwBAGiF4gkAQCsUTwAAWqF4AgDQCsUTAIBWKJ4AALRC8QQAoBWKJwAArVA8AQBoheIJAEALUvp/zSDE2AQakM4AAAAASUVORK5CYII=;movable=0;resizable=0;rotatable=0;deletable=0;editable=0;locked=1;connectable=0;" vertex="1" parent="1">
          <mxGeometry x="90" y="60" width="670" height="427" as="geometry" />
        </mxCell>
        <mxCell id="VO9uvYtOyiIi0N9G-no1-2" value="&lt;font color=&quot;#ff0000&quot;&gt;SoF&lt;/font&gt;" style="text;html=1;align=center;verticalAlign=middle;whiteSpace=wrap;rounded=0;" vertex="1" parent="1">
          <mxGeometry x="90" y="80" width="60" height="30" as="geometry" />
        </mxCell>
        <mxCell id="VO9uvYtOyiIi0N9G-no1-3" value="&lt;font color=&quot;#ff0000&quot;&gt;CTE start&lt;/font&gt;" style="text;html=1;align=center;verticalAlign=middle;whiteSpace=wrap;rounded=0;" vertex="1" parent="1">
          <mxGeometry x="170" y="80" width="60" height="30" as="geometry" />
        </mxCell>
        <mxCell id="VO9uvYtOyiIi0N9G-no1-4" value="&lt;font color=&quot;#ff0000&quot;&gt;EoF&lt;/font&gt;" style="text;html=1;align=center;verticalAlign=middle;whiteSpace=wrap;rounded=0;" vertex="1" parent="1">
          <mxGeometry x="250" y="80" width="60" height="30" as="geometry" />
        </mxCell>
        <mxCell id="VO9uvYtOyiIi0N9G-no1-5" value="" style="endArrow=classic;startArrow=classic;html=1;rounded=0;strokeColor=#ff0000;" edge="1" parent="1">
          <mxGeometry width="50" height="50" relative="1" as="geometry">
            <mxPoint x="150" y="120" as="sourcePoint" />
            <mxPoint x="220" y="120" as="targetPoint" />
          </mxGeometry>
        </mxCell>
        <mxCell id="VO9uvYtOyiIi0N9G-no1-6" value="&lt;font color=&quot;#ff0000&quot;&gt;304.9us&lt;/font&gt;" style="text;html=1;align=center;verticalAlign=middle;whiteSpace=wrap;rounded=0;" vertex="1" parent="1">
          <mxGeometry x="150" y="120" width="60" height="30" as="geometry" />
        </mxCell>
        <mxCell id="VO9uvYtOyiIi0N9G-no1-7" value="" style="endArrow=classic;startArrow=classic;html=1;rounded=0;strokeColor=#ff0000;" edge="1" parent="1">
          <mxGeometry width="50" height="50" relative="1" as="geometry">
            <mxPoint x="230" y="120" as="sourcePoint" />
            <mxPoint x="250" y="120" as="targetPoint" />
          </mxGeometry>
        </mxCell>
        <mxCell id="VO9uvYtOyiIi0N9G-no1-8" value="&lt;font color=&quot;#ff0000&quot;&gt;100us&lt;/font&gt;" style="text;html=1;align=center;verticalAlign=middle;whiteSpace=wrap;rounded=0;" vertex="1" parent="1">
          <mxGeometry x="210" y="130" width="60" height="30" as="geometry" />
        </mxCell>
        <mxCell id="VO9uvYtOyiIi0N9G-no1-9" value="" style="endArrow=classic;startArrow=classic;html=1;rounded=0;strokeColor=#ff0000;" edge="1" parent="1">
          <mxGeometry width="50" height="50" relative="1" as="geometry">
            <mxPoint x="260" y="210" as="sourcePoint" />
            <mxPoint x="550" y="210" as="targetPoint" />
          </mxGeometry>
        </mxCell>
        <mxCell id="VO9uvYtOyiIi0N9G-no1-10" value="&lt;font color=&quot;#ff0000&quot;&gt;1.0593ms&lt;/font&gt;" style="text;html=1;align=center;verticalAlign=middle;whiteSpace=wrap;rounded=0;" vertex="1" parent="1">
          <mxGeometry x="360" y="220" width="60" height="30" as="geometry" />
        </mxCell>
        <mxCell id="VO9uvYtOyiIi0N9G-no1-11" value="&lt;font color=&quot;#ff0000&quot;&gt;SoF&lt;/font&gt;" style="text;html=1;align=center;verticalAlign=middle;whiteSpace=wrap;rounded=0;" vertex="1" parent="1">
          <mxGeometry x="500" y="180" width="60" height="30" as="geometry" />
        </mxCell>
        <mxCell id="VO9uvYtOyiIi0N9G-no1-12" value="&lt;font color=&quot;#ff0000&quot;&gt;CTE start&lt;/font&gt;" style="text;html=1;align=center;verticalAlign=middle;whiteSpace=wrap;rounded=0;" vertex="1" parent="1">
          <mxGeometry x="580" y="180" width="60" height="30" as="geometry" />
        </mxCell>
        <mxCell id="VO9uvYtOyiIi0N9G-no1-13" value="&lt;font color=&quot;#ff0000&quot;&gt;EoF&lt;/font&gt;" style="text;html=1;align=center;verticalAlign=middle;whiteSpace=wrap;rounded=0;" vertex="1" parent="1">
          <mxGeometry x="670" y="180" width="60" height="30" as="geometry" />
        </mxCell>
        <mxCell id="VO9uvYtOyiIi0N9G-no1-14" value="" style="endArrow=classic;startArrow=classic;html=1;rounded=0;strokeColor=#ff0000;" edge="1" parent="1">
          <mxGeometry width="50" height="50" relative="1" as="geometry">
            <mxPoint x="560" y="210" as="sourcePoint" />
            <mxPoint x="630" y="210" as="targetPoint" />
          </mxGeometry>
        </mxCell>
        <mxCell id="VO9uvYtOyiIi0N9G-no1-15" value="&lt;font color=&quot;#ff0000&quot;&gt;304.9us&lt;/font&gt;" style="text;html=1;align=center;verticalAlign=middle;whiteSpace=wrap;rounded=0;" vertex="1" parent="1">
          <mxGeometry x="560" y="220" width="60" height="30" as="geometry" />
        </mxCell>
        <mxCell id="VO9uvYtOyiIi0N9G-no1-16" value="" style="endArrow=classic;startArrow=classic;html=1;rounded=0;strokeColor=#ff0000;" edge="1" parent="1">
          <mxGeometry width="50" height="50" relative="1" as="geometry">
            <mxPoint x="640" y="210" as="sourcePoint" />
            <mxPoint x="670" y="210" as="targetPoint" />
          </mxGeometry>
        </mxCell>
        <mxCell id="VO9uvYtOyiIi0N9G-no1-17" value="&lt;font color=&quot;#ff0000&quot;&gt;100us&lt;/font&gt;" style="text;html=1;align=center;verticalAlign=middle;whiteSpace=wrap;rounded=0;" vertex="1" parent="1">
          <mxGeometry x="630" y="220" width="60" height="30" as="geometry" />
        </mxCell>
        <mxCell id="VO9uvYtOyiIi0N9G-no1-18" value="&lt;font color=&quot;#ffea00&quot;&gt;Tx1&lt;/font&gt;" style="text;html=1;align=center;verticalAlign=middle;whiteSpace=wrap;rounded=0;" vertex="1" parent="1">
          <mxGeometry x="80" y="120" width="60" height="30" as="geometry" />
        </mxCell>
        <mxCell id="VO9uvYtOyiIi0N9G-no1-19" value="&lt;font color=&quot;#ffea00&quot;&gt;Tx2&lt;/font&gt;" style="text;html=1;align=center;verticalAlign=middle;whiteSpace=wrap;rounded=0;" vertex="1" parent="1">
          <mxGeometry x="80" y="210" width="60" height="30" as="geometry" />
        </mxCell>
        <mxCell id="VO9uvYtOyiIi0N9G-no1-20" value="&lt;font color=&quot;#ffea00&quot;&gt;Rx1&lt;/font&gt;" style="text;html=1;align=center;verticalAlign=middle;whiteSpace=wrap;rounded=0;" vertex="1" parent="1">
          <mxGeometry x="80" y="320" width="60" height="30" as="geometry" />
        </mxCell>
        <mxCell id="VO9uvYtOyiIi0N9G-no1-21" value="&lt;font color=&quot;#ffea00&quot;&gt;Rx2&lt;/font&gt;" style="text;html=1;align=center;verticalAlign=middle;whiteSpace=wrap;rounded=0;" vertex="1" parent="1">
          <mxGeometry x="80" y="410" width="60" height="30" as="geometry" />
        </mxCell>
        <mxCell id="VO9uvYtOyiIi0N9G-no1-36" value="" style="group;movable=0;resizable=0;rotatable=0;deletable=0;editable=0;locked=1;connectable=0;" vertex="1" connectable="0" parent="1">
          <mxGeometry x="290" y="560" width="758" height="245.9000000000001" as="geometry" />
        </mxCell>
        <mxCell id="VO9uvYtOyiIi0N9G-no1-24" value="" style="shape=image;verticalLabelPosition=bottom;labelBackgroundColor=default;verticalAlign=top;aspect=fixed;imageAspect=0;image=data:image/png,iVBORw0KGgoAAAANSUhEUgAABYoAAAHMCAYAAAB7ppzjAAAAAXNSR0IArs4c6QAAAARnQU1BAACxjwv8YQUAAAAJcEhZcwAADsMAAA7DAcdvqGQAAE4WSURBVHhe7d15lJx3fef7pxFgu9uSV1m2WpZZbDBmxwtgxGYImwO22QyZQCbJCeQmk9w5yTBJyNwT50xu/sqZewYGCOQmcDM5BMISwk4Ag8FmMVsCBoNt8AZesbEtdQMWdt/6PlWl7pZai6V+qqT+vF6HB1dVV7e69dav6qlfP/X8Jg477LC5BgAgwNwu93rmP7j4fv0r87ft2fWy1G1Di/+MoSVvHIGJwX/nTex4U0//xsUf2/62Pbtelvo6S1l8PwAAoAsmigGAWDtO1i6+YXeTwbu7Xpa6bSnz9xuP3U/G9u+w1OTu9pPAe359aPENO34cAADo2sRhhx0+5pclAACjcl8ma/tXtr9t5/eZ/8D8fZa6rSy6sh+bn7FdPHnbv7L9bdtPCJf+bdtfL0vdtjO7vQMAALCPTBQDAGw3cbvrid7+hT2/XhZdaS3++NCSN47AjhOxS0/eLjW527+w59fLUreVHW4AoAP3v/+q5oEPfGDvv/fvXZtoZmdnm1/84hf9D+6j+roHH3xQs2rVqva57p577ml++tOfbvv6dfvU1GRzv/utan72s5+12wMe8IDe5z2g97H6fuaau+7a3N53lCYnD+l9Hw/sfV8Tzb33zjV33313+30fdFD9PAf3br9f7+fp3z47+9P25zjkkEMGf4dN+/PV/evnBThQTRx+uIliACDP0hO1Zf4D8/fpX1j8OQuPLt7+c7a/PrToym4t/tzls+ME7e7Mf8L2E747nwBe6nMWfnxo0ZVtFt8HgOX0iEc8onnMYx7THH/88b3H24nmfe97f/ODH3x/8NF98+Qnn9k85SlntpOr9bXvvPPO5lOf+nTzne98u/34gx70oOZlL3tZs3r16uZzn/tcc9FFn+t9L49uv6cNGzY0MzOzzRvf+Ib2vqNSE74vetGLmpNOOqn33DvXft/f+c53mo9+9GPN6aef1vt5ntJODNdk8RVXXNF84AP/0hx33HHN2Wef3Rx55BHt17j99tubD3/4w821117bXgc4EK06+OBDLujvoNtsNpvNZrOt9G1eTUQu3ObVlf4N8x/r37b4vguv9z/eXlp0ff4+298+v+3cws9dzm3X6g6Lt8Wfu/j2vvnr8/fpX174OfPXS/+2oeHHFt9nqG6w2Ww223Jt55zzombdunXN4Ycf3tx7773Nt7/9neYnP/nJovvUx4444shmzZrVzdTUVPvLy61bt277+JFHHtm7zxHtEbg///nd225/9rOf1U68fu1rX29+8YutzYMf/OD2SN1vfvObzeTkVPOCF7ygnRCuydhrr72u97k/b84665nNUUcd1Rx22GHtEcZf+tKXtn292lavXtMcffRR7ddds+aw9nt64AMPau+/Zs2a9vb6HurPGX6dmoiu+9T3XEcI19c5+OBDel9nbe/7mGz/3OHtT3ziGc3pp5/e3Hbbbc3FF1/Sfs/191PfS01611HSF110Uft3snHjxuauu+5qnvCEx/fu96De392328878cQT26OLv/Ody7d930cddXTv7/Dw9nI9t9WfXUdT12T47v5+bTabbRzbxBFHHNHRsSoAAON1347Inb/z4s9b6vb+hd1dLzv7WttbfL/R23FydqH5Dy6+X//K/G27u17mr+zs9t1Z/HkA3FfHH7+xPdVCHdlb3vWudzVXXXVVe7nUxOVLXvKS5qEPfWg7WVoToF/5ylebT3ziE73nq3vb+7ziFa9ojwL+/Ocvbj71qU+2t5UTTnhQO1G7ZcuWdpL1YQ97WPPlL1/afOQjH2me+cxnNE996lN7X2Ounay98MLPNJ/5zGeaY489tlm37pjm3HPPbe64447mr/7qrwZfre85z3luO5n84x//uD1NRU0O/+hHN7Q/Q12uidv3vOc9zdFHH908+9nP3nb0b03gfuQjH22uuebq9us8/OEPb1784he3p9p4xzv+v+bOO+9obz/ttNObE098aPP97/+gufzyy5vf/d3faQ466KDmq1/9avOkJz2p/XPf8IY3tH9fp512WnPJJZe0fzf1c773ve9tJ6Rf/OLzmptvvrl54xvf2H7N8prXvKZ5yEMe0v6cdcR2/Z3V3+db3vKW3f79AozD/fo75TabzWaz2Wwrb6sJxT3Z+upCf1v8seHtO962u+sLb+tv87dvv9XHFt93lFvv/5b4nmrb/vta/LHFt+38ell828L79bf523e39f7fZrPZbPuwXX/99e3RtDVBWdvExP0WfbwmMGuCt865W0fMzszMNIcffljzgAf0z2lc25VXXtUeJXz99dct+tw69cI99/yiOffcc9qJ2Tpy99prr2mOO+7Y5vTTz2gngus0DfXnrlp1v/Yo2vp+6nP7t83/GcOt7tf/2Krms5+9qD1P8IYN0+3pIX70ox81a9eubf+sOp3GEUcc0U741u01qXzUUUdu+zq33nprc9lll7VH/dYpMYa314Twu9717vb0GDWZXRPA9fm33XZ7ezTx8EjfOq9yXT/kkMl2crjUkcw1KV3fXx0xPfyatdX3O/w56+94+PPtyd+vzWazjWOrZwMAgBVq6R2g7bddTUTuyW07Xl/687b/2I7b8OOj3pb6Xmrr/d8O33/dXtuOt+3s+u5uW+pju94A2Ff1OF4Tl7X1H9Pn3XzzLc0111zTntKhJl9rIrMmZe++uyZM+772ta+15zb+3veuGNzStBOmhx22pp1g/eAHP9hOytapIM4888z2SN86argmaA899ND2z60J3pog7X/ucGJ1VXt9oZqgrfvX9/HFL36xnSiuxeOuuOLK9uvVhHBNwNb5g+sUGief/PB2wvjqq69edM7g22//SfOhD324+eQn54+AHlq9+tD2+6wjiOtI5Esu+UK7MF19T8NJ4Zrwreulvt/6c2tyd/i9b/fX2N5W33d9//N/36v26O8XYBzuVw9WNpvNZrPZbCtzqxfCu9766sL8tvBzd31b/3p9rH99Z5+38L619T+2P29Lfc8Lv++Ft/evz99W1/u39a/v6vMWb3X7nmzDP89ms9lse7sNj4LtT2TWEa8LP960R/necMMN7RHAj3rUo9rF3oYL1NVWRwjXUbx1xO7wtjplRZ1a4owzTm+Pwq3PrcnSOkK3jsS95ZZbm2OPPa6dIK5TO9TCdtPT/fMV12RqTbze//4P2Pb1hltN0PY/1p/UrvsMv++aIO5PFN+vPUXEddf1v+86l3FNTp9xxhnbvk5NzJ500ontuYWHt9V26KFT7SJ8z3nOc9ojoC+99NLe93pLe2R0ncO5Fqyr8yrXeYXr/ps339VOVtfPW9//kUce1f48NeG78OvW91jfW50eoybM6z79n2/3f782m802js0RxQDACtZ7Jbabrb9T1Ls02Obt+PH52xZfX+q27b9uXR9+rLb+x7ffhvcd9bbj99K7dbvvdXjf2hZ+rH/b8PpStw2vL/66ffMfq234sd1tAOyreswdThT3H3/nHXfc+nbCd3p6uj3XcE361nl9ayJz6GlPe1rzqle9qnnc4x43uKV/BG0t9lYTtC9/+cvbBeLqyN/vfve7zb/+6yeb973vfe1Wk7A1yfu9731v2xG/dVRufS/DI3YXGh5RPPzY8Ejd+r6Hp6Wo+2zatKk59dQntLf//Oc/aydzZ2d/2n5OWb9+fe/7Or89F/LCn+Xkk09unvWsZ7UTunU6iFrM7vnPf157ion6/mqi+6UvfUl7vuGajK4jmetnqknkJz3pie3E+PDnXKi+z5ogf8QjTm6PVu5PBO/Z3y/AOEwcddTRY146BQBglJbe9Vl6Mbn+jUstSLent5Udv/YON+ynFk8cLJ5HmL8yf/t9v21o8ddeaKcfAGAf1BHBNVlZPv/5zzc33nhTe7nUUbBPfvKTmhNOOKGd7Kzz8F5++Xeaf/u3fx/co2me+cxnbjtP8Ne+9vXBrU17xO7jH//4drG6WrSuzgv8hS98obnjjjoncN9zn/vc9jQU3/rWZc03vvGN9rY6b2+d9mF2dqb553/+QHvbUH29Rz/6Ue0pG2rBt/POO7f9Huv7fshDHtr73Ie0X6tOQ1ET12vWrF7yzz7hhI29n+vJ7VHDn/70he0ieGX49Wuyeejee+9pv+aWLZt7H39Cu3BenYri+9//fu9rfrE9ZcaZZz6lWbv26Pb+t976497tlyz6Of/rf31dOwl93XXXtZ+3desvmpmZLc3HP/6J3f79AoyDiWIAgEX6u0Y7m9xdajJ4qdvKzr7G7uz4ed3Y+eTs9hbfcfHnzV+5L5PDO7sdAFaK17/+T9rTc9R5kd/73vcObgXYf00cffTaEb0UAQDYXyze/dn1xGz/g8s5QTyqieB9teNE8s4me8v8lfsyYbzQ7v48APZNPc7WOX3rNAl076yzzmqOOWZte9T1N7/5rcGtAPuvibVrTRQDACvX3k/Kzu3kc/s3LjVJvKv7Dx0ok8RDezJ5e18nhvsf2/H2PbHj9wPAnpqYuF8zOXloMzPTP+UCACw0sXbtMfvVy5U6mfvpp5/WnkS+3H77T5qvfvUrzW233b7tZO91Yvq77rqz+cpXvtr86Ec/au/HgakWA3jsYx/brF69undtblvvm266uXnc4x7bPOIRj2hP/l+LEFx++eXO2bRC1Pm8nvnMs5pDDz20+da3vtXr+m96r1C1cnSd/26ojl754he/1J6L7fGPf1xz8MH9c7394Ac/6N3+xcG9OFDVuQKf8ITHNw9+8EN6l+/fntevxvdJJ510APSe3x3a+UTufZk4LnvyNZdyn+68DPZ85nU4SVuP1w972MPahYhqv2y41YI/tcBP7cvV6u512+23395ceulXtp0HcnvDr9lnFnh/Vc/TJ5/cf56uxZtqtf4672exj77yrF27tl2E7Oijj2ofv6pnnQu26H1gqwXjVq85srnzjtsGt5Cm9tfqdXidr7meq6+99rptj+dek61MdV7uhzzkwe2ij9X1qqu+33vs/soBso/OfVHju871XouK3v/+qxb17p9X/czec3v/vOq1MOf2548vq6ampi4YXB65Qw+d6n3zJ7Qnhb/rrs3tba985Suas88+u+l9X+1Ko6eddlp7YveaSHz1q1/Vu+1BzZFHHtH+4HVyeg9aB46lev/ar726ed7zntsudDDsXS8+6h/qq1/96uaJT3xi+2BW/123bl37RLVly0z7uezfaueiFmeoX/rUohILPe95z2t+5Vde2Tz2sY/pPTjd1ut9h94rQC1mcswx63pPRj/vbVvb2/7Tf/rd9oVmreJ80EEH97YHtr8QqlWk6614979/f2Kxdla///0ftBNKHBiW6l1Nzz//5c1jHvOYdtXualoLwPzqr/6HA6B3TVD2t+GkZ39bOJG548f6tv+8/ufU5R0/tnAb3m/7ban7drkt9T3UNn+feiFZj8u171X7Zccff3yv40PbX/jVPtsjH3lKr+0Tmptvvrk57rjjmnPOOaedaKrJpFogaPPmLe0iPkt97d61BRv7g2OOOaZZv3592/tnP/tZe/3Vr/615ulPf1r7PH3qqU9of1FQizPV/pt99APbUvvo5557TnPeeS9u3zJ/4okPbRf5qkXBakzrfWCrI4oPPuiQ3tj+6eAWVrKlXpPVa62Xveyl7YRRvf6uiaQvf/nL7cSS12QHvu330R/5yEc2//E//lrzqEc9qt3vespTntLe54c//FFvf+1FXpMd4LbvXfvjNY5r37xU7/qlUO2HP+lJT2xe/vKXt/voGzZsaMd/Hchx5ZVXtvcdWtXbwb9g4c76KLf6h/orv/IrzbHHrmtXSa0dkRe96EXtSqMf/OAH2/vU0aZbt27t3efY3g7Ko5tLLvlC841vfL39gQ477LD2tx0/+9nP2/vWkWv1+fUgWL8JqUnIJz7xjHb10Y0bj+/t8JzbPO1pT912lEsdCVGTkgu/J1t32/a967Z6kVE7nR/72MebI444or1PPQnVUYcveMHzmxtvvLH527/9u/Y3m/Wg9YMfXN0erVSfe8oppzTnn39+84hHnNx885vfbPv/8i+f3XuQW9U+sdUObq3EW/8Gaqf21ltvaX76058t+p5s3W21Q/Krv/qr7eINNU6Ht9cLjbq9xmD9tqvO11WTDPvS+5Zbbmle+MJfbldPPvPMJ7e/Ba+VjG+77bZtf66t+60m/5/+9Ge0PW666abmoIMOal784pf0XkDe27zhDW9su1XvGuvnnXdeu1P65je/ud0prR2Y+qXBt7/97fZr1W014Xjqqae2j+GPetQje1/rvPZx/4c//KHe+8G2fe9q9hu/8RvN8cdvaFcjr8f12umoFcxf9rKX7bJ3bS996UubX/qlZ7djuq5X/3pOqH83z372s5uzz35Bb0fnzHa/oNSfOfzc5d/aP2KgP4G5/cf799n+9uHH+p+z9MeHW/9++/c2/z0+4xlPb19I1PPzdddd32zevLl9fL7qqiub2dmftr/4qyNR/uVf/qX3eH52u9P6qU99ql2dviYVhyvTD/9eap/sWc+qFyb93i9/+csGvb/Vu/1Zg95PaX/pULrtbdt+q7//eo6tcVv71DWu68VkdfzQhz7UPOhBD2pfYNSLyXphaR/9wN6W2kd/zWt+q30hWWO69tXPOOOMdv+6xva+9D7yyCPto495q3eCHHzIZPPzn/10yY/bVta21Guy+mVvPZ6vWbO6vVyvub70pS+1z7u7e01mH33/37bfR3/GM57R2097XO912Lebf/qn9zSbNm1qf6lf+3JPe9rTvSY7wLfte9fzdM2v1PN5vXv7CU84td23uuyyb7XPz7X/9rGPfay54YYb2/2uem7/zGc+u+3r1Wuy+/X+27synq12Puow95osrOu1c/Gud727edvb3tq+VfXwww/v3T7RvsioQ6PrSe2aa65uf6Daeawf9rjj1m/7evVAVjux9d+6Xm9tr7+I+nNe8pKXtkew1ZEv9Y+8/nGfcsojtn2urftt+961ffzjH+s9YF3ePPvZz+o96Dy6PbK0nqTqvnWUcf1j/973vtvbefxp267+0Q8/t57U6omsOtf16v7CF76w9yR4cvvipl501Nc5+eST296nnnrats+1db/VZOBjHvPo9slmeFv9Rvucc85tP1Zt60GpxvW+9q7fhr/iFa9o/6yjjjq6d78XtGN/+Lm20Ww1tmuMV8+6Xi/+6yileiyvPnVUaR15VG95Wb360Paohu9+9/L2bavVv34hOPxa9TWq4fAxvDpX7+qu9/6xbd+7xnsdYVZHltXb02vHscZsTTzsrndttYM5HNPD/jXeq3O926iOaqmdnppcrPvV48nCz9+Tbc/tuBO2+PPrys4+vtTH+h9fuA3vt79vw++3jjasSdv+ftdE+y6B/g7pze1RCnX0aU0a1iTyUUcd2U4a11tZa4KpTjUz37v/9/HkJz+p91z9y+0L19rH+6Vf+qXeC5ln9nqf0hvf5y/qXffbm962vd9qIrj2l6enN7TXq/Nll13WvlOgJvLrCOM6MuUb3/iGffQVsFWH7ffR63G69tPq9Vntn9c4rknefe1tH33829BSH7OtvG2p12Q1efT+97+/nRCucb5qVZ1Gqv9YsLvXZHWfGs/DMW0fff/btt9H/9rXvta85S1vbt773ve1vxyo/as6OK8miL0mO/C37Xtffvl3m3e/+5/a5+yzz/7ltnntw9UBPPV8XQfi1j57vQuw9smXek12v97FepoY6Va/lXrd617XHmFUDzz1g/33//4X7dsfvv71r7cz33XUSu0s1vmuPvzhD7dHptUOytatv+jtnEy0D2h1W71Favh1a/XW+s1Y/beu1/kR+xNRE+1fUk1W1Fsn6jckl1xySbvTO/xcW3fbznr/+q//etuifhO1ZcuWXtu72yMPanKpXhDWds8997ZfY9i7zp0z/Lq1k1q9q3Ndn++/qjnssMPbJ8V6IVMvZuutNFdcccW2z7V1u/3+7/9+e2Rhjbvp6fVt77rtuc99Tvtbq3//939vmw977WvvevCrP+vII4/qfc5B7QNh/zxbO35vtuXf6gVfNa6xXWO8xvp/+2//V1Pnqa0npCuvvKqdNKpJ4joqvM6FVb1rQrE+v1rW9ZqAGH7N4eP88DG8Ovd731/vMW876/2Yxzy2vd6fRJxpJ/rqrU3Dc5ruqndt1Xo4pof9a7wfcsgh7U5NPabX83idY+vzn/9ce6T6ws/fk204SbnrrXfPwbbYUvddeKelP97732Cr+85vO95v/9ye8pRNzR/8wR+0R43WC4s66vMP//APmqc+dVP78Zo0qtbV9+tf/1o71us0M9WvLg/H7iGHTA5+9r753v1fGNbl4f3qa1bvOlqlel988efbyaiFf3+2brZnPevZzQUXXNAePVrPwzVRX9frlBN19FHdVm9rHLZft+6Y9rbqbB/9wNt2tY9er8nqsboex+uXNfVYPGy7L73to49/Gz6+L/Ux28radvaabGZmZvALoMVjtcZ8bbt+Tda/fTim7aPvP9vO9tFrf+pLX/py2+xVr3pVOxl88cUXt0cU724fXe/9d9tZ73qtXUcW33LLzb2xvqVttn79dNup+tZ+9z331HN4f/+7nt8Xft22dT1HjHqrU0vUP9a6XN90/cM84ojD2xcgdVsdOfTKV76y/c3Gm970pub6669rX2zUD1VHotV5leqbr8+78867Fnzd/u313/7X7v+Drvu/4x3v6A2GS9oXmw972EntOTNrB2X4ubbutp31rh3FOjqpHqje8573NBdd9Ln2ck0m/eIXW9uOhx22ZtvnldqhnP+6/d7VeeH1+u+73vWu9m3P9SB34ol1gvZaXOlB2z7X1u126KGr2xcF/Z3Q+k324e1t9VvG+k3X4x7XP2qlxnS9nbleHO5L7zoK/Z3vfGdz++239Xqf2L4lpv6M4efaut3qyaUa19iudnVbPVbXv4F6d8gnP/nJ5h/+4R/aCZ+aaOj/1nKifUKr+1bDul6/1a7r/a3ft7a6rPf+s+2s93Dnsd5u9nd/9/bme9/7Xtt7uODRrnv3x/2w8bB/jfcrr7yi/fdzzTXXtEc51pGG9Rxe+wULP39Pt92rO/W3+j4Xbzt+jR3v07/fvF19vf1/qx3/msSrLrUzWbfVJE9NBpd6m2qNwzpXbZ02Yvh59e+kmg8/r57Xhx+rrfrW7fXx2qp/bTVhtH3vemv7vffuXW/bfdtqQqB6D8d3/beu175UvaW0Jhbe+ta3tuO7+jzpSU+2j34Ab7t6TfbP//yB5s1vfku7+M1PfvKTtlf9d19720cf/1b6j8U7fsy2sradvSYbfnz7sbonr8GH4344phd+Dfvo49129ZqsTt/427/92va5/F//9V/bU70Of/HrNdmBue2sd/1SqM5TXO/cf/vb395OGtf+VR11XPetz5ua6u+jV8ulXpON5YjiOkr4bW/7m+azn72oPUKk3trwP/7H/9O8733vb89bWefIqm/uc5/7XPtD1CkJ6oerndfTTz9j8Nblw9u3M/ZX2O1/3fqc+kFrNcf6OrXAQl2vSYk6r0rdXufeqLdQ1Lm16h/zwu/L1s22s94XXXRR85u/+RvNf/7P/2f7FoUHPeiEtnEtmlKfU4fE12RitazTDtTtV1999bavWw9i1bw6130e+tCHtL3rtupd50ust0TedNON7fltTznlkYu+L1t329///d+3Tz7VsI4crt51W52f8h//8V3tLwXqF0H14HTDDTe0b1/cl951BFS9bbkWQawXNPUW6DpyeeH3ZOtu++QnP9U2rrFdY7zG+v/6X2/q7Wze07416UUvemF7xGGdgqCa1+qqtcNZ50d6yUte0px88sPb857Wuc+GX7N6V99ayPS0005tHv7wh7WTSnqPf9tZ7y984YvtESo12VNvcaxJ4toZqcfg3fWurdrW5EP9FvyMM05v29dtNRFVi9yWz372s+2kRn8iad22z70vW/3b2vXWu9eCbbGlvsZS993+Prvb5r/G/rHNf2/1Lq86T+G1117XjsFa0OZv/ub/bd/GeMghB7dHGFe3r3/9G+1RC/X5NcbrHUL11rV6d1j9Erje3rpQje9h7xq/df+6rfbxlrO37b5tdf7K//k/39D+Yq/GX50jvK7Xee3q30P1qHNO1/iuj9cRKfbRD9xtV6/J6i2ptcBNHTFWRx7X43tNCuxL7/o3ZB99/Nvw8X2pj9lW1raz12TDjw/Hav23ru/pa/D6HPvo+9+2s330OoVQHVlek4d17uE6dVSdNqwWP/Oa7MDddta7Orzudf+lPXq81napo76rYx1Bfsstt7b73Js2PaU9EKPmWxc+f9dWbe/XuzRy9WBTi1TccMOPejsIN7c7HPXgU/+tSYX6wepIgnPPPa/5oz/6o+a1r31Nu8NSL07qH955553b/pAf//jH2681NHygqx2O17zmNe1OTL0tqlZsrL+82hmtCYvaub3qqquar371K4PPpEs7613nwbnssm+3D0z1Frc6512dhqLOp1IPNBde+Jn2bY2vfe1vt0cv1S8O6nxKQ8PfgNSkRPWuE/XXb0PqRUu9IK0d15qArie666//Yfs1GY16sKlVVG+88aZ2q95120c/+rHmH//xne1WY7j61e01lvel99VX/6CZm2vaJ6+nPe1p7Un0L71U71GpI0iHj+E1xmus1w7GV7/61XYs1nmrfud3/o+22aWXXtqei/4jH/lo27Na1or5dd/PfvYzg69YvftPUrVTUifUr3cf1I5LHVWo93jtrHc9xn7gA//SHpXwe7/3e23X6v3Od/7jbnuX6l07nrW4UX9h2/7boobnyKvn9uc///nt/WqSss6j1o3FO2HDF9TzW+/W+tA2u7pvbf37D7el9T9//9nm1URRPYfX5G9NBtX2wx9e395e5x2tI1NqH+vCCy/s3bv/+bXYWf3bqNOIPfOZz+j9G7mxXTRj4d9LdayJ4up9zjnnbOt9xRXfa/cbFvaut8B315uF6ojhOpq7xnc9ftdW1+stq8MDOGoc18RhHUFeR4baRz9w7eo1WXne857XTgLUC9B6p0j9QnBfetcpg+yj7y8WP9azMu3sNdnQcKzWf8uevQa3j76/2tk+ek0W1i/2qlkd8ftbv/VbzR//8R/3nssf6jXZAWxnvT/96QubWmi6ThNXr8lqHH/qU58ePIe/r/cYcEP73F6nF6vHh4985CODr9hXvSeOO259nZBkLGqRozrpde1Y1G+tS731qHYmFqp/cPUD1yIJ9Tn1xFYTRLVjWb/dHvqzP/uzdoelXqy89a1v673guKfd6i+u3t5Ui6vUW5/qCKf6vBtvvKH3D3xsP36cpXrXkSn1RFQPTqU+VjuQ1bdur3/UdXL9Ok9Svd2tXqgO1WIYf/Inf9Le/od/+F/aB6t6oKrr9ZvQmlCsF6Fl4ddlNGrM1Wkm6sXFwh2SofoNdZ3P7rbbbm+77kvvepFSp68Ynh+vnrzqc+uoZUanGlT32277cbtAQqlf+tU4r671b6Hemlrjf+HYr8fkajV8XCh1ROlf/MVftB9/05ve3B7VVmqy6Cc/uUPv/cBSvXfWdXe9y1vf+tftkQ4f/OCHmne/+93tv5d6C2Sd0mDdumPbHdSaYKyxX/8GFj4+3Hc7PvfX48nem//kffs6+696Tq23o9cEcU0mljpKcPi8XpPHQw984EHtxF/9+yj18doXW/gc/Nd//ZZtvd/znn/qdZ3rPXff3S6GV5+7vL25r2q81i99qvWwd/95uk5D0j9FQR2dVkeEFvvoB7al9tFLf19tsn0tVr8kqjY1abAvvesXgvbRx6saHnb42uYnt98yuIWVbFevyer5tt6qXkeE1vgs/cf6nb8ms4++/9t+H72a1vNs7VcN1fNtvQ6veZNd7aPrvf/bvvfwebp/at/F+9L13Fu/lF+4j779c3C9JhvrRPFy+/M///N25dz3v/+f2x0UVrY6+vxP//T1vSe1m9sTebOy6Z2lTlXxl3/5f7eXX//6P20Xu2Fl+5u/eVt7moI6zUGtT7B/6e8q7dsk8J598r79GXtvwWuH3dj7o9Dm/4yJbb8YePvb39G8+c1vHtzOSmUfPYve+7d6B8fhRxzd3H6biWLuO/voWfTOU6/JxjpRfPjhR7ZvYbvxxh2PNtwb9TamqanJZmZmdtvRD+w/arXUI444ctl61xEOdZRaHaFQRzKwf6nfXh177Hq9gxx33HS7mMHPfz7/9tO9Ve8sqaMZSh3JUEczsX+p3nUE2V13Lc/zbR1hVt3rHQK1HTjmd6PGNck7CuvWre/9fPX4u/hI8IUWTzbvekJ5eERhHZV6YPXOcPTRx7RHftpHz1CLW61evUbvEP2J4rXN7bft/PGclaX22W655ab2ddS+so++/6vetX++8J0ee0vv/V/1ri633748776rffSJ9eunx/ay5sgjj2p3RK+44vLBLaxk9UuBk046pfnmN782uIWVrCaKTz/9zObSSy8Z3MJK99jHntZ897uXLctEMfu/hz/8lPataXfccdvglgPR0rtA3U747v6Lj3rCeU+OJt648cHt29JuuumGwS3LZ+d//h58Y3TimGOOa2pF7KuvvnJwCyvZmjWHNevXb+w9h8+fh5SVq96W3J8oduBFilNPfXLzb//25fZUEqx8j3zk45prrrmqqUWGWflOPPFh7S9lf/zj5XtMH8tidvNqQZMxfwuMVP0Gmxx1HkNy1LnMyLEyHs9rInLHrX7RtePW+8hg2zfzf87OtqX//O62pb6H7bfaX+vf976rT5vf7sufz7j02wyuEMFzeBKPsWnqNVn/+ZYEw8UJydCfU13e8T32PQKPVznmXwySwg5JmuGkDwnyUg+fwxZPci7e+n8vta08/Z9xewt/5h3/Poafs3DjQNFvRwKpYWXzeJ5H8xxdtJ54zGNPG9upJwAAVoYldqd2sYd1oOx87XLXc8kPemECAAAHqonp6Q1jfa2yadNZzcUXXzi4xkqndxa9s+idRe8seufRPIveWdYes7659ZblP+c8+yfjO4veWbro7WRUAAAAAADhTBQDAAAAAIRbtWbNmgsGl8dibq5p7rrrjsE1Vjq9s+idRe8semfRO4/mWfQO0+u9devdgyusdMZ3Fr2zdNF77OcoBgAAAABgvMZ+6omNGx88uEQCvbPonUXvLHpn0TuP5ln0zjI1tXpwiQTGdxa9s3TR20QxI6V3Fr2z6J1F7yx659E8i95ZJk0URzG+s+idpYveFrMDAAAAAAgXOVH8iU98fNsGAAAAAOw7820HtrFPFF977dWDS6P13Oc+b3CJURpXb8ZD7yx6Z9E7i955NM+id5aZLZsHl0hgfGfRO0sXvcc+UXz99f4RJ9E7i95Z9M6idxa982ieRe8ss7MmipMY31n0ztJFb4vZMVJ6Z9E7i95Z9M6idx7Ns+idZcpidlGM7yx6Z+mit4liRkrvLHpn0TuL3ln0zqN5Fr2zTJoojmJ8Z9E7Sxe9IxezAwAAAABgnoliAAAAAIBwY58otiJjFr2z6J1F7yx6Z9E7j+ZZ9M4ys8VidkmM7yx6Z+mi99gniq3ImEXvLHpn0TuL3ln0zqN5Fr2zzM6aKE5ifGfRO0sXvS1mx0jpnUXvLHpn0TuL3nk0z6J3limL2UUxvrPonaWL3iaKGSm9s+idRe8semfRO4/mWfTOMmmiOIrxnUXvLF30tpgdAAAAAEA4E8UAAAAAAOHGPlFsRcYsemfRO4veWfTOoncezbPonWVmi8XskhjfWfTO0kXvsU8UW5Exi95Z9M6idxa9s+idR/MsemeZnTVRnMT4zqJ3li56W8yOkdI7i95Z9M6idxa982ieRe8sUxazi2J8Z9E7Sxe9TRQzUnpn0TuL3ln0zqJ3Hs2z6J1l0kRxFOM7i95ZuuhtMTsAAAAAgHAmigEAAAAAwo19otiKjFn0zqJ3Fr2z6J1F7zyaZ9E7y8wWi9klMb6z6J2li95jnyi2ImMWvbPonUXvLHpn0TuP5ln0zjI7a6I4ifGdRe8sXfS2mB0jpXcWvbPonUXvLHrn0TyL3lmmLGYXxfjOoneWLnqbKGak9M6idxa9s+idRe88mmfRO8ukieIoxncWvbN00dtidgAAAAAA4UwUAwAAAACEG/tEsRUZs+idRe8semfRO4veeTTPoneWmS0Ws0tifGfRO0sXvcc+UWxFxix6Z9E7i95Z9M6idx7Ns+idZXbWRHES4zuL3lm66G0xO0ZK7yx6Z9E7i95Z9M6jeRa9s0xZzC6K8Z1F7yxd9DZRzEjpnUXvLHpn0TuL3nk0z6J3lkkTxVGM7yx6Z+mit8XsAAAAAADCmSgGAAAAAAg39oliKzJm0TuL3ln0zqJ3Fr3zaJ5F7ywzWyxml8T4zqJ3li56j32i2IqMWfTOoncWvbPonUXvPJpn0TvL7KyJ4iTGdxa9s3TR22J2jJTeWfTOoncWvbPonUfzLHpnmbKYXRTjO4veWbrobaKYkdI7i95Z9M6idxa982ieRe8skyaKoxjfWfTO0kVvi9kBAAAAAIQzUQwAAAAAEG7sE8VWZMyidxa9s+idRe8seufRPIveWWa2WMwuifGdRe8sXfQe+0SxFRmz6J1F7yx6Z9E7i955NM+id5bZWRPFSYzvLHpn6aK3xewYKb2z6J1F7yx6Z9E7j+ZZ9M4yZTG7KMZ3Fr2zdNHbRDEjpXcWvbPonUXvLHrn0TyL3lkmTRRHMb6z6J2li94WswMAAAAACGeiGAAAAAAg3Ngniq+7zom2k+idRe8semfRO4veeTTPoneW2RmL2SUxvrPonaWL3iaKGSm9s+idRe8semfRO4/mWfTOMmOiOIrxnUXvLF30tpgdI6V3Fr2z6J1F7yx659E8i95ZpixmF8X4zqJ3li56myhmpPTOoncWvbPonUXvPJpn0TvLpIniKMZ3Fr2zdNHbYnYAAAAAAOFMFAMAAAAAhLOYHSOldxa9s+idRe8seufRPIveWWYtZhfF+M6id5YuepsoZqT0zqJ3Fr2z6J1F7zyaZ9E7y4yJ4ijGdxa9s3TRe+wTxccf70TbSfTOoncWvbPonUXvPJpn0TvL5KTF7JIY31n0ztJF77FPFJ9wgn/ESfTOoncWvbPonUXvPJpn0TvL1KEmipMY31n0ztJFb4vZAQAAAACEM1EMAAAAABDOYnaMlN5Z9M6idxa9s+idR/MsemeZtZhdFOM7i95ZuuhtopiR0juL3ln0zqJ3Fr3zaJ5F7ywzJoqjGN9Z9M7SRe+xTxRv3OhE20n0zqJ3Fr2z6J1F7zyaZ9E7y9SUxeySGN9Z9M7SRW8TxYyU3ln0zqJ3Fr2z6J1H8yx6Z5k0URzF+M6id5YuelvMDgAAAAAgnIliAAAAAIBwFrNjpPTOoncWvbPonUXvPJpn0TvLrMXsohjfWfTO0kVvE8WMlN5Z9M6idxa9s+idR/MsemeZMVEcxfjOoneWLnpbzI6R0juL3ln0zqJ3Fr3zaJ5F7yxTFrOLYnxn0TtLF71NFDNSemfRO4veWfTOoncezbPonWXSRHEU4zuL3lm66G0xOwAAAACAcCaKAQAAAADCWcyOkdI7i95Z9M6idxa982ieRe8ssxazi2J8Z9E7Sxe9TRQzUnpn0TuL3ln0zqJ3Hs2z6J1lxkRxFOM7i95ZuuhtMTtGSu8semfRO4veWfTOo3kWvbNMWcwuivGdRe8sXfQ2UcxI6Z1F7yx6Z9E7i955NM+id5ZJE8VRjO8semfporfF7AAAAAAAwpkoBgAAAAAIZzE7RkrvLHpn0TuL3ln0zqN5Fr2zzFrMLorxnUXvLF30NlHMSOmdRe8semfRO4veeTTPoneWGRPFUYzvLHpn6aK3xewYKb2z6J1F7yx6Z9E7j+ZZ9M4yZTG7KMZ3Fr2zdNHbRDEjpXcWvbPonUXvLHrn0TyL3lkmTRRHMb6z6J2li94WswMAAAAACGeiGAAAAAAgnMXsGCm9s+idRe8semfRO4/mWfTOMmsxuyjGdxa9s3TR20QxI6V3Fr2z6J1F7yx659E8i95ZZkwURzG+s+idpYveE5dddtnc4HKU5z73ec0nPvHxwTUAAAAAgFwT09MbxjpRvGnTWc3FF184uMZKp3cWvbPonUXvLHrn0TyL3lnWHrO+ufWWGwbXWOmM7yx6Z+mit8XsAAAAAADCmSgGAAAAAAi3as2aNRcMLo/NnXfeMbhEAr2z6J1F7yx6Z9E7j+ZZ9M4x0du2br27f4UIxncWvbMsd++xn6MYAAAAAIDxGvupJ0466ZTBJRLonUXvLHpn0TuL3nk0z6J3ltVrjhhcIoHxnUXvLF30HvtE8bp1xw4ukUDvLHpn0TuL3ln0zqN5Fr2zHHzwIYNLJDC+s+idpYveFrMDAAAAAAg3cf75r3aOYgAAAACAYI4oBgAAAAAINzE9vWGsRxRv2nRWc/HFFw6usdLpnUXvLHpn0TuL3nk0z6J3lrXHrG9uveWGwTVWOuM7i95ZuujtiGIAAAAAgHAmigEAAAAAwq1as2bNBYPLYzE31zR33XXH4Bornd5Z9M6idxa9s+idR/Mseofp9d669e7BFVY64zuL3lm66D32cxQDAAAAADBeYz/1xMaNDx5cIoHeWfTOoncWvbPonUfzLHpnmZpaPbhEAuM7i95ZuuhtopiR0juL3ln0zqJ3Fr3zaJ5F7yyTJoqjGN9Z9M7SRW+L2QEAAAAAhDNRzIrx3te/atsGAAAAAKN0oM9NjX2i+Nprrx5cIkHXvV/6l/97cIn9gfGdRe8semfRO4/mWfTOMrNl8+ASCYzvLHrvH0Y1N9VF77FPFF9/vX/ESfTOoncWvbPonUXvPJpn0TvL7KyJ4iTGdxa9s3TR22J2jJTeWfTOoncWvbPonUfzLHpnmbKYXRTjO4veWbrobaKYkdI7i95Z9M6idxa982ieRe8skyaKoxjfWfTO0kVvi9kBAAAAAIQzUQwAAAAAEG7sE8VWZMyidxa9s+idRe8seufRPIveWWa2WMwuifGdRe8sXfQe+0SxFRmz6J1F7yx6Z9E7i955NM+id5bZWRPFSYzvLHpn6aK3xewYKb2z6J1F7yx6Z9E7j+ZZ9M4yZTG7KMZ3Fr2zdNHbRDEjpXcWvbPonUXvLHrn0TyL3lkmTRRHMb6z6J2li94WswMAAAAACGeiGAAAAAAg3Ngniq3ImEXvLHpn0TuL3ln0zqN5Fr2zzGyxmF0S4zuL3lm66D32iWIrMmbRO4veWfTOoncWvfNonkXvLLOzJoqTGN9Z9M7SRW+L2TFSemfRO4veWfTOoncezbPonWXKYnZRjO8semfporeJYkZK7yx6Z9E7i95Z9M6jeRa9s0yaKI5ifGfRO0sXvS1mBwAAAAAQzkQxAAAAAEC4sU8UW5Exi95Z9M6idxa9s+idR/MsemeZ2WIxuyTGdxa9s3TRe+wTxVZkzKJ3Fr2z6J1F7yx659E8i95ZZmdNFCcxvrPonaWL3hazY6T0zqJ3Fr2z6J1F7zyaZ9E7y5TF7KIY31n0ztJFbxPFjJTeWfTOoncWvbPonUfzLHpnmTRRHMX4zqJ3li56W8wOAAAAACCciWIAAAAAgHBjnyi2ImMWvbPonUXvLHpn0TuP5ln0zjKzxWJ2SYzvLHpn6aL32CeKrciYRe8semfRO4veWfTOo3kWvbPMzpooTmJ8Z9E7Sxe9LWbHSOmdRe8semfRO4veeTTPoneWKYvZRTG+s+idpYveJooZKb2z6J1F7yx6Z9E7j+ZZ9M4yaaI4ivGdRe8sXfS2mB0AAAAAQDgTxQAAAAAA4cY+UWxFxix6Z9E7i95Z9M6idx7Ns+idZWaLxeySGN9Z9M7SRe+xTxRbkTGL3ln0zqJ3Fr2z6J1H8yx6Z5mdNVGcxPjOoneWLnpbzI6R0juL3ln0zqJ3Fr3zaJ5F7yxTFrOLYnxn0TtLF71NFDNSemfRO4veWfTOoncezbPonWXSRHEU4zuL3lm66G0xOwAAAACAcCaKAQAAAADCjX2i2IqMWfTOoncWvbPonUXvPJpn0TvLzBaL2SUxvrPonaWL3mOfKLYiYxa9s+idRe8semfRO4/mWfTOMjtrojiJ8Z1F7yxd9LaYHSOldxa9s+idRe8seufRPIveWaYsZhfF+M6id5YuepsoZqT0zqJ3Fr2z6J1F7zyaZ9E7y6SJ4ijGdxa9s3TR22J2AAAAAADhTBQDAAAAAIQb+0Txddc50XYSvbPonUXvLHpn0TuP5ln0zjI7YzG7JMZ3Fr2zdNHbRDEjpXcWvbPonUXvLHrn0TyL3llmTBRHMb6z6J2li94Ws2Ok9M6idxa9s+idRe88mmfRO8uUxeyiGN9Z9M7SRW8TxYyU3ln0zqJ3Fr2z6J1H8yx6Z5k0URzF+M6id5YuelvMDgAAAAAgnIliAAAAAIBwFrNjpPTOoncWvbPonUXvPJpn0TvLrMXsohjfWfTO0kVvE8WMlN5Z9M6idxa9s+idR/MsemeZMVEcxfjOoneWLnqPfaL4+OOdaDuJ3ln0zqJ3Fr2z6J1H8yx6Z5mctJhdEuM7i95Zuug99oniE07wjziJ3ln0zqJ3Fr2z6J1H8yx6Z5k61ERxEuM7i95ZuuhtMTsAAAAAgHAmigEAAAAAwlnMjpHSO4veWfTOoncWvfNonkXvLLMWs4tifGfRO0sXvU0UM1J6Z9E7i95Z9M6idx7Ns+idZcZEcRTjO4veWbroPfaJ4o0bnWg7id5Z9M6idxa9s+idR/MsemeZmrKYXRLjO4veWbrobaKYkdI7i95Z9M6idxa982ieRe8skyaKoxjfWfTO0kVvi9kBAAAAAIQzUQwAAAAAEM5idoyU3ln0zqJ3Fr2z6J1H8yx6Z5m1mF0U4zuL3lm66G2imJHSO4veWfTOoncWvfNonkXvLDMmiqMY31n0ztJFb4vZMVJ6Z9E7i95Z9M6idx7Ns+idZcpidlGM7yx6Z+mit4liRkrvLHpn0TuL3ln0zqN5Fr2zTJoojmJ8Z9E7Sxe9LWYHAAAAABDORDEAAAAAQDiL2TFSemfRO4veWfTOoncezbPonWXWYnZRjO8semfporeJYkZK7yx6Z9E7i95Z9M6jeRa9s8yYKI5ifGfRO0sXvS1mx0jpnUXvLHpn0TuL3nk0z6J3limL2UUxvrPonaWL3iaKGSm9s+idRe8semfRO4/mWfTOMmmiOIrxnUXvLF30tpgdAAAAAEA4E8UAAAAAAOEsZsdI6Z1F7yx6Z9E7i955NM+id5ZZi9lFMb6z6J2li94mihkpvbPonUXvLHpn0TuP5ln0zjJjojiK8Z1F7yxd9LaYHSOldxa9s+idRe8seufRPIveWaYsZhfF+M6id5YuepsoZqT0zqJ3Fr2z6J1F7zyaZ9E7y6SJ4ijGdxa9s3TR22J2AAAAAADhTBQDAAAAAISzmB0jpXcWvbPonUXvLHrn0TyL3llmLWYXxfjOoneWLnqbKGak9M6idxa9s+idRe88mmfRO8uMieIoxncWvbN00Xvii2/6k7nBZTjgvfQv/3fz3te/anANAAAAAEbnQJ6bmpie3jDWieJNm85qLr74wsE1Vjq9s+idRe8semfRO4/mWfTOsvaY9c2tt9wwuMZKZ3xn0TtLF70tZgcAAAAAEM5EMQAAAABAuFVr1qy5YHB5bO68847BJRLonUXvLHpn0TuL3nk0z6J3jonetnXr3f0rRDC+s+idZbl7j/0cxQAAAAAAjNfYTz1x0kmnDC6RQO8semfRO4veWfTOo3kWvbOsXnPE4BIJjO8semfpovfYJ4rXrTt2cIkEemfRO4veWfTOoncezbPoneXggw8ZXCKB8Z1F7yxd9LaYHQAAAABAuInzz3+1cxQDAAAAAARzRDEAAAAAQLiJ6ekNYz2ieNOms5qLL75wcI2VTu8semfRO4veWfTOo3kWvbOsPWZ9c+stNwyusdIZ31n0ztJFb0cUAwAAAACEM1EMAAAAABBu1Zo1ay4YXB6LubmmueuuOwbXWOn0zqJ3Fr2z6J1F7zyaZ9E7TK/31q13D66w0hnfWfTO0kXvsZ+jGAAAAACA8Rr7qSc2bnzw4BIJ9M6idxa9s+idRe88mmfRO8vU1OrBJRIY31n0ztJFbxPFjJTeWfTOoncWvbPonUfzLHpnmTRRHMX4zqJ3li56W8wOAAAAACCcieJl8MMX/2a7AQAAAMAomZdiuYx9ovjaa68eXCKB3ln0zqJ3Fr2z6J1H8yx6Z5nZsnlwiQTGdxa9s3TRe2J6esPc4DJ7afhbmw3v/9v2vwAAAAAwCualWC4Ws2Ok9M6idxa9s+idRe88mmfRO8uUxeyiGN9Z9M7SRW8TxYyU3ln0zqJ3Fr2z6J1H8yx6Z5k0URzF+M6id5YuelvMDgAAAAAgnIliAAAAAIBwY58otiJjFr2z6J1F7yx6Z9E7j+ZZ9M4ys2Xz4BIJjO8semfpovfE9PSGucFl9pLVJQEAAAAYB/NSLBeL2TFSemfRO4veWfTOoncezbPonWXKYnZRjO8semfporeJYkZK7yx6Z9E7i95Z9M6jeRa9s0yaKI5ifGfRO0sXvS1mBwAAAAAQzkQxAAAAAEC4sU8UW5Exi95Z9M6idxa9s+idR/MsemeZ2bJ5cIkExncWvbN00XtienrD3OAye8nqkgAAAACMg3kplovF7BgpvbPonUXvLHpn0TuP5ln0zjJlMbsoxncWvbN00dtEMSOldxa9s+idRe8seufRPIveWSZNFEcxvrPonaWL3hazAwAAAAAIZ6IYAAAAACDc2CeKrciYRe8semfRO4veWfTOo3kWvbPMbNk8uEQC4zuL3lm66D0xPb1hbnCZvWR1SQAAAADGwbwUy8VidoyU3ln0zqJ3Fr2z6J1H8yx6Z5mymF0U4zuL3lm66G2imJHSO4veWfTOoncWvfNonkXvLJMmiqMY31n0ztJFb4vZAQAAAACEM1EMAAAAABBu7BPFVmTMoncWvbPonUXvLHrn0TyL3llmtmweXCKB8Z1F7yxd9J6Ynt4wN7jMXrK6JAAAAADjYF6K5WIxO0ZK7yx6Z9E7i95Z9M6jeRa9s0xZzC6K8Z1F7yxd9DZRzEjpnUXvLHpn0TuL3nk0z6J3lkkTxVGM7yx6Z+mit8XsAAAAAADCmSgGAAAAAAg39oliKzJm0TuL3ln0zqJ3Fr3zaJ5F7ywzWzYPLpHA+M6id5Yuek9MT2+YG1xmL1ldEgAAAIBxMC/FcrGYHSOldxa9s+idRe8seufRPIveWaYsZhfF+M6id5YuepsoZqT0zqJ3Fr2z6J1F7zyaZ9E7y6SJ4ijGdxa9s3TR22J2AAAAAADhTBQDAAAAAIQb+0SxFRmz6J1F7yx6Z9E7i955NM+id5aZLZsHl0hgfGfRO0sXvSempzfMDS6zl6wuCQAAAMA4mJdiuVjMjpHSO4veWfTOoncWvfNonkXvLFMWs4tifGfRO0sXvU0UM1J6Z9E7i95Z9M6idx7Ns+idZdJEcRTjO4veWbrobTE7AAAAAIBwJooBAAAAAMKNfaL4uuusyJhE7yx6Z9E7i95Z9M6jeRa9s8zObB5cIoHxnUXvLF30npie3jA3uMxesrokAAAAAONgXorlYjE7RkrvLHpn0TuL3ln0zqN5Fr2zTFnMLorxnUXvLF30NlHMSOmdRe8semfRO4veeTTPoneWSRPFUYzvLHpn6aK3xewAAAAAAMKZKAYAAAAACDf2iWIrMmbRO4veWfTOoncWvfNonkXvLLMzmweXSGB8Z9E7Sxe9J6anN8wNLrOXrC4JAAAAwDiYl2K5jP2I4uOPd6LtJHpn0TuL3ln0zqJ3Hs2z6J1lctJidkmM7yx6Z+mi99gnik84wT/iJHpn0TuL3ln0zqJ3Hs2z6J1l6lATxUmM7yx6Z+mit8XsAAAAAADCmSgGAAAAAAg39oliKzJm0TuL3ln0zqJ3Fr3zaJ5F7yyzM5sHl0hgfGfRO0sXvSempzfMDS6zl6wuCQAAAMA4mJdiuYz9iOKNG51oO4neWfTOoncWvbPonUfzLHpnmZqymF0S4zuL3lm66G2imJHSO4veWfTOoncWvfNonkXvLJMmiqMY31n0ztJFb4vZAQAAAACEM1EMAAAAABBu7BPFVmTMoncWvbPonUXvLHrn0TyL3llmZzYPLpHA+M6id5Yuek9MT2+YG1xmL1ldEgAAAIBxMC/FcrGYHSOldxa9s+idRe8seufRPIveWaYsZhfF+M6id5YuepsoZqT0zqJ3Fr2z6J1F7zyaZ9E7y6SJ4ijGdxa9s3TR22J2AAAAAADhTBQDAAAAAIQb+0SxFRmz6J1F7yx6Z9E7i955NM+id5bZmc2DSyQwvrPonaWL3hPT0xvmBpfZS1aXBAAAAGAczEuxXCxmx0jpnUXvLHpn0TuL3nk0z6J3limL2UUxvrPonaWL3iaKGSm9s+idRe8semfRO4/mWfTOMmmiOIrxnUXvLF30tpgdAAAAAEA4E8UAAAAAAOHGPlFsRcYsemfRO4veWfTOoncezbPonWV2ZvPgEgmM7yx6Z+mi98T09Ia5wWX2ktUlAQAAABgH81IsF4vZMVJ6Z9E7i95Z9M6idx7Ns+idZcpidlGM7yx6Z+mit4liRkrvLHpn0TuL3ln0zqN5Fr2zTJoojmJ8Z9E7Sxe9LWYHAAAAABDORDEAAAAAQLixTxRbkTGL3ln0zqJ3Fr2z6J1H8yx6Z5md2Ty4RALjO4veWbroPTE9vWFucJm9ZHVJAAAAAMbBvBTLZWLu9/7MRDEAAAAAQLCxH1G8adNZzcUXXzi4xkqndxa9s+idRe8seufRPIveWdYes7659ZYbBtdY6YzvLHpn6aK3xewAAAAAAMKZKAYAAAAACLdqzZo1Fwwuj82dd94xuEQCvbPonUXvLHpn0TuP5ln0zjHR27Zuvbt/hQjGdxa9syx377GfoxgAAAAAgPEa+6knTjrplMElEuidRe8semfRO4veeTTPoneW1WuOGFwigfGdRe8sXfQe+0TxunXHDi6RQO8semfRO4veWfTOo3kWvbMcfPAhg0skML6z6J2li94WswMAAAAACDdx/vmvdo5iAAAAAIBgjigGAAAAAAg3MT29YaxHFG/adFZz8cUXDq6x0umdRe8semfRO4veeTTPoneWtcesb2695YbBNVY64zuL3lm66O2IYgAAAACAcCaKAQAAAADCrVqzZs0Fg8tjMTfXNHfddcfgGiud3ln0zqJ3Fr2z6J1H8yx6h+n13rr17sEVVjrjO4veWbroPfZzFAMAAAAAMF5jP/XExo0PHlwigd5Z9M6idxa9s+idR/MsemeZmlo9uEQC4zuL3lm66G2imJHSO4veWfTOoncWvfNonkXvLJMmiqMY31n0ztJFb4vZAQAAAACEM1G8DH741qe3GwAAAACMknkplsvYJ4qvvfbqwSUS6J1F7yx6Z9E7i955NM+id5aZLZsHl0hgfGfRO0sXvSempzfMDS6zl4a/tdnw2ova/wIAAADAKJiXYrlYzI6R0juL3ln0zqJ3Fr3zaJ5F7yxTFrOLYnxn0TtLF71NFDNSemfRO4veWfTOoncezbPonWXSRHEU4zuL3lm66G0xOwAAAACAcCaKAQAAAADCjX2i2IqMWfTOoncWvbPonUXvPJpn0TvLzJbNg0skML6z6J2li94T09Mb5gaX2UtWlwQAAABgHMxLsVwsZsdI6Z1F7yx6Z9E7i955NM+id5Ypi9lFMb6z6J2li94mihkpvbPonUXvLHpn0TuP5ln0zjJpojiK8Z1F7yxd9LaYHQAAAABAOBPFAAAAAADhxj5RbEXGLHpn0TuL3ln0zqJ3Hs2z6J1lZsvmwSUSGN9Z9M7SRe+J6ekNc4PL7CWrSwIAAAAwDualWC4Ws2Ok9M6idxa9s+idRe88mmfRO8uUxeyiGN9Z9M7SRW8TxYyU3ln0zqJ3Fr2z6J1H8yx6Z5k0URzF+M6id5YuelvMDgAAAAAgnIliAAAAAIBwY58otiJjFr2z6J1F7yx6Z9E7j+ZZ9M4ys2Xz4BIJjO8semfpovfE9PSGucFl9pLVJQEAAAAYB/NSLBeL2TFSemfRO4veWfTOoncezbPonWXKYnZRjO8semfporeJYkZK7yx6Z9E7i95Z9M6jeRa9s0yaKI5ifGfRO0sXvS1mBwAAAAAQzkQxAAAAAEC4sU8UW5Exi95Z9M6idxa9s+idR/MsemeZ2bJ5cIkExncWvbN00XtienrD3OAye8nqkgAAAACMg3kplovF7BgpvbPonUXvLHpn0TuP5ln0zjJlMbsoxncWvbN00dtEMSOldxa9s+idRe8seufRPIveWSZNFEcxvrPonaWL3hazAwAAAAAIZ6IYAAAAACDc2CeKrciYRe8semfRO4veWfTOo3kWvbPMbNk8uEQC4zuL3lm66D0xPb1hbnCZvWR1SQAAAADGwbwUy8VidoyU3ln0zqJ3Fr2z6J1H8yx6Z5mymF0U4zuL3lm66G2imJHSO4veWfTOoncWvfNonkXvLJMmiqMY31n0ztJFb4vZAQAAAACEM1EMAAAAABBu7BPFVmTMoncWvbPonUXvLHrn0TyL3llmtmweXCKB8Z1F7yxd9J6Ynt4wN7jMXrK6JAAAAADjYF6K5WIxO0ZK7yx6Z9E7i95Z9M6jeRa9s0xZzC6K8Z1F7yxd9DZRzEjpnUXvLHpn0TuL3nk0z6J3lkkTxVGM7yx6Z+mit8XsAAAAAADCmSgGAAAAAAg39oni666zImMSvbPonUXvLHpn0TuP5ln0zjI7s3lwiQTGdxa9s3TRe2J6esPc4DJ7yeqSAAAAAIyDeSmWi8XsGCm9s+idRe8semfRO4/mWfTOMmUxuyjGdxa9s3TR20QxI6V3Fr2z6J1F7yx659E8i95ZJk0URzG+s+idpYveFrMDAAAAAAhnohgAAAAAINzYJ4qtyJhF7yx6Z9E7i95Z9M6jeRa9s8zObB5cIoHxnUXvLF30npie3jA3uMxesrokAAAAAONgXorlMvYjio8/3om2k+idRe8semfRO4veeTTPoneWyUmL2SUxvrPonaWL3mOfKD7hBP+Ik+idRe8semfRO4veeTTPoneWqUNNFCcxvrPonaWL3hazAwAAAAAIZ6IYAAAAACDc2CeKrciYRe8semfRO4veWfTOo3kWvbPMzmweXCKB8Z1F7yxd9J6Ynt4wN7jMXrK6JAAAAADjYF6K5TL2I4o3bnSi7SR6Z9E7i95Z9M6idx7Ns+idZWrKYnZJjO8semfporeJYkZK7yx6Z9E7i95Z9M6jeRa9s0yaKI5ifGfRO0sXvS1mBwAAAAAQzkQxAAAAAEC4sU8UW5Exi95Z9M6idxa9s+idR/MsemeZndk8uEQC4zuL3lm66D0xPb1hbnCZvWR1SQAAAADGwbwUy8VidoyU3ln0zqJ3Fr2z6J1H8yx6Z5mymF0U4zuL3lm66G2imJHSO4veWfTOoncWvfNonkXvLJMmiqMY31n0ztJFb4vZAQAAAACEM1EMAAAAABBu7BPFVmTMoncWvbPonUXvLHrn0TyL3llmZzYPLpHA+M6id5Yuek9MT2+YG1xmL1ldEgAAAIBxMC/FcrGYHSOldxa9s+idRe8seufRPIveWaYsZhfF+M6id5YuepsoZqT0zqJ3Fr2z6J1F7zyaZ9E7y6SJ4ijGdxa9s3TR22J2AAAAAADhTBQDAAAAAIQb+0SxFRmz6J1F7yx6Z9E7i955NM+id5bZmc2DSyQwvrPonaWL3hPT0xvmBpfZS1aXBAAAAGAczEuxXCxmx0jpnUXvLHpn0TuL3nk0z6J3limL2UUxvrPonaWL3iaKGSm9s+idRe8semfRO4/mWfTOMmmiOIrxnUXvLF30tpgdAAAAAEA4E8UAAAAAAOHGPlFsRcYsemfRO4veWfTOoncezbPonWV2ZvPgEgmM7yx6Z+mi98T09Ia5wWX2ktUlAQAAABgH81Isl4m5D/8HE8UAAAAAAMHGfkTxpk1nNRdffOHgGiud3ln0zqJ3Fr2z6J1H8yx6Z1l7zPrm1ltuGFxjpTO+s+idpYveFrMDAAAAAAhnohgAAAAAINyqNWvWXDC4PDZ33nnH4BIJ9M6idxa9s+idRe88mmfRO8dEb9u69e7+FSIY31n0zrLcvcd+jmIAAAAAAMZr7KeeOOmkUwaXSKB3Fr2z6J1F7yx659E8i95ZVq85YnCJBMZ3Fr2zdNF77BPF69YdO7hEAr2z6J1F7yx6Z9E7j+ZZ9M5y8MGHDC6RwPjOoneWLnpbzA4AAAAAINzE+ee/2jmKAQAAAACCOaIYAAAAACDcxPT0BkcUAwAAAAAEc0QxAAAAAEA4E8UAAAAAAOFMFAMAAAAAhDNRDAAAAAAQzkQxAAAAAEA4E8UAAAAAAOFMFAMAAAAAhDNRDAAAAAAQzkQxAAAAAEA4E8UAAAAAAOFMFAMAAAAAhDNRDAAAAAAQzkQxAAAAAEA4E8UAAAAAAOFMFAMAAAAAhDNRDAAAAAAQzkQxAAAAAEA4E8UAAAAAAOFMFAMAAAAAhDNRDAAAAAAQzkQxAAAAAEA4E8UAAAAAAOFMFAMAAAAAhDNRDAAAAAAQzkQxAAAAAEA4E8UAAAAAAOFMFAMAAAAAhDNRDAAAAAAQzkQxAAAAAEC0pvn/AbmO8S0iVu67AAAAAElFTkSuQmCC;movable=1;resizable=1;rotatable=1;deletable=1;editable=1;locked=0;connectable=1;" vertex="1" parent="VO9uvYtOyiIi0N9G-no1-36">
          <mxGeometry width="758" height="245.9" as="geometry" />
        </mxCell>
        <mxCell id="VO9uvYtOyiIi0N9G-no1-25" value="&lt;font color=&quot;#ff0000&quot;&gt;CTE start&lt;/font&gt;" style="text;html=1;align=center;verticalAlign=middle;whiteSpace=wrap;rounded=0;" vertex="1" parent="VO9uvYtOyiIi0N9G-no1-36">
          <mxGeometry x="35" y="20" width="60" height="30" as="geometry" />
        </mxCell>
        <mxCell id="VO9uvYtOyiIi0N9G-no1-26" value="&lt;font color=&quot;#ff0000&quot;&gt;EoF&lt;/font&gt;" style="text;html=1;align=center;verticalAlign=middle;whiteSpace=wrap;rounded=0;" vertex="1" parent="VO9uvYtOyiIi0N9G-no1-36">
          <mxGeometry x="615" y="20" width="60" height="30" as="geometry" />
        </mxCell>
        <mxCell id="VO9uvYtOyiIi0N9G-no1-27" value="" style="endArrow=classic;startArrow=classic;html=1;rounded=0;strokeColor=#ff0000;" edge="1" parent="VO9uvYtOyiIi0N9G-no1-36">
          <mxGeometry width="50" height="50" relative="1" as="geometry">
            <mxPoint x="35" y="50" as="sourcePoint" />
            <mxPoint x="695" y="50" as="targetPoint" />
          </mxGeometry>
        </mxCell>
        <mxCell id="VO9uvYtOyiIi0N9G-no1-29" value="&lt;font color=&quot;#ff0000&quot;&gt;100.1us&lt;/font&gt;" style="text;html=1;align=center;verticalAlign=middle;whiteSpace=wrap;rounded=0;" vertex="1" parent="VO9uvYtOyiIi0N9G-no1-36">
          <mxGeometry x="305" y="20" width="60" height="30" as="geometry" />
        </mxCell>
        <mxCell id="VO9uvYtOyiIi0N9G-no1-30" value="" style="endArrow=classic;startArrow=classic;html=1;rounded=0;strokeColor=#ff0000;" edge="1" parent="VO9uvYtOyiIi0N9G-no1-36">
          <mxGeometry width="50" height="50" relative="1" as="geometry">
            <mxPoint x="105" y="100" as="sourcePoint" />
            <mxPoint x="725" y="100" as="targetPoint" />
          </mxGeometry>
        </mxCell>
        <mxCell id="VO9uvYtOyiIi0N9G-no1-31" value="&lt;font color=&quot;#ff0000&quot;&gt;95.74us&lt;/font&gt;" style="text;html=1;align=center;verticalAlign=middle;whiteSpace=wrap;rounded=0;" vertex="1" parent="VO9uvYtOyiIi0N9G-no1-36">
          <mxGeometry x="325" y="70" width="60" height="30" as="geometry" />
        </mxCell>
        <mxCell id="VO9uvYtOyiIi0N9G-no1-32" value="" style="endArrow=classic;startArrow=classic;html=1;rounded=0;strokeColor=#ff0000;" edge="1" parent="VO9uvYtOyiIi0N9G-no1-36">
          <mxGeometry width="50" height="50" relative="1" as="geometry">
            <mxPoint x="55" y="160" as="sourcePoint" />
            <mxPoint x="675" y="160" as="targetPoint" />
          </mxGeometry>
        </mxCell>
        <mxCell id="VO9uvYtOyiIi0N9G-no1-33" value="&lt;font color=&quot;#ff0000&quot;&gt;95.78us&lt;/font&gt;" style="text;html=1;align=center;verticalAlign=middle;whiteSpace=wrap;rounded=0;" vertex="1" parent="VO9uvYtOyiIi0N9G-no1-36">
          <mxGeometry x="319" y="130" width="60" height="30" as="geometry" />
        </mxCell>
        <mxCell id="VO9uvYtOyiIi0N9G-no1-34" value="" style="endArrow=classic;startArrow=classic;html=1;rounded=0;strokeColor=#ff0000;" edge="1" parent="VO9uvYtOyiIi0N9G-no1-36">
          <mxGeometry width="50" height="50" relative="1" as="geometry">
            <mxPoint x="55" y="210" as="sourcePoint" />
            <mxPoint x="675" y="210" as="targetPoint" />
          </mxGeometry>
        </mxCell>
        <mxCell id="VO9uvYtOyiIi0N9G-no1-35" value="&lt;font color=&quot;#ff0000&quot;&gt;95.78us&lt;/font&gt;" style="text;html=1;align=center;verticalAlign=middle;whiteSpace=wrap;rounded=0;" vertex="1" parent="VO9uvYtOyiIi0N9G-no1-36">
          <mxGeometry x="319" y="180" width="60" height="30" as="geometry" />
        </mxCell>
        <mxCell id="VO9uvYtOyiIi0N9G-no1-38" value="" style="group" vertex="1" connectable="0" parent="1">
          <mxGeometry x="60" y="560" width="216" height="289" as="geometry" />
        </mxCell>
        <mxCell id="VO9uvYtOyiIi0N9G-no1-22" value="" style="shape=image;verticalLabelPosition=bottom;labelBackgroundColor=default;verticalAlign=top;aspect=fixed;imageAspect=0;image=data:image/png,iVBORw0KGgoAAAANSUhEUgAAAWQAAAGPCAYAAABrmKphAAAAAXNSR0IArs4c6QAAAARnQU1BAACxjwv8YQUAAAAJcEhZcwAADsMAAA7DAcdvqGQAAAnKSURBVHhe7d2xaqTnGYbhmZyEFiRZpFCzxyAwqFnXxqAi7DYpXOUA4iadzyCFazcpXKbwNgKDwCewfZC0pxEUVvwKyTzNFwf2fb9vrgvEjrb/b4Z53kH709Ozpx1Lubq63t3d3W6/AZ/M8Fz8bvsXgGKCDNCEIC/o/v4f2yvgxQzPhc+QAZrwDnlBX3zx++0V8GKG50KQFyTIkAQZgGFHHeT373+OH4AqR/8O+c2br/79swpXFpBmeC58ZLGgx0dBhkMzPBeCvCCjHiSjHiUEGZIgAzBMkAGaEOQFubKA5MqCEq4sILmyoIRRD5JRjxKCDEmQARgmyABNCPKCXFlAcmVBCVcWkFxZUMKoB8moRwlBhiTIAAwTZIAmBHlBriwgubKghCsLSK4sKGHUg2TUo4QgQxJkAIYJMkATgrwgVxaQXFlQwpUFJFcWlDDqQTLqUUKQIQkyAMMEGaAJQV6QKwtIriwo4coCkisLShj1IBn1KCHIkAQZgGGCDNCEIC/IlQUkVxaUcGUByZUFJYx6kIx6lBBkSIIMwDBBBmhCkBf08GDUg0MzPBeCvCBBhiTIlDDqQTLqUUKQIQkyAMMEGaAJQV6QUQ+SUY8SggxJkClxfm7Ug0MzPBeCvKCLC0GGQzM8F4IM0IQgAzQhyAsy6kEy6lFCkCEJMiV8dRqSr05TQpAhCTIAwwQZoAlBXpBRD5JRjxKCDEmQKWHUg2TUo4QgQxJkAIYJMkATgrwgox4kox4lBBmSIFPCqAfJqEcJQYYkyAAME2SAJgR5QUY9SEY9SggyJEGmhFEPklGPEoIMSZABGCbIAE0I8oKMepCMepQQZEgzPBf7Dx8+PG2vj9KbN19tr3a79+9/3l4BfH7709Ozow7yiq6urnd3d7fbb8AnMzwXPrIAaEKQAZoQ5AUZ9SBNMer5DBmgB++QF3R5+Xp7BbyY4bkQ5AWdnLzaXgEvZnguBBmgif3NzTufIQM04B0yQBOuLBbkm3qQfFMPgGGCDNCEIC/o/t439eDQDM+Fz5ABmvAOeUH+yCkkf+SUEoIMSZABGCbIwG/203dv/+uH/48gL8iVBZ/TN9//+PzT3QzPhSAv6PFRkOHQDM+FIC/IqAfJqEcJQYYkyAAME2SAJgR5Qa4sILmyoIQrC0iuLChh1INk1KOEIEMSZACGCTJAE4K8IFcWkFxZUMKVBSRXFpQw6kEy6lFCkCEJMgDDBBmgCUFekCsLSK4sKOHKApIrC0oY9SAZ9SghyJAEGYBhggzQhCAvyJUFJFcWlHBlAcmVBSWMepCMepQQZEiCDMAwQQZoQpAX5MoCkisLSriygOTKghJGPUhGPUoIMiRBBmCYIAM0IcgLcmUByZUFJVxZQHJlQQmjHiSjHiUEGZIgAzBMkAGaEOQFPTwY9eDQDM+FIC9IkCEJMiWMepCMepQQZEiCDMAwQQZoQpAXZNSDZNSjhCBDEmRKnJ8b9eDQDM+FIC/o4kKQ4dAMz4UgAzQhyABNCPKCjHqQjHqUEGRIgkwJX52G5KvTlBBkSIIMwDBBBmhCkBdk1INk1KOEIEMSZEoY9SAZ9SghyJAEGYBhggzQhCAvyKgHyahHCUGGJMiUMOpBMupRQpAhCTIAwwQZoAlBXpBRD5JRjxKCDEmQKWHUg2TUo4QgQxJkAIYJMkATgrwgox4kox4lBBnSDM/F/te//vlpew3wP/vm+x+f//3pu7fP//Lb7U9PzwR5MVdX17u7u9vtN+CTGZ4LH1kANCHIAE0I8oKMepCmGPV8hgzQg3fIC7q8fL29Al7M8FwI8oJOTl5tr4AXMzwXggzQxP7m5p3PkAEa8A4ZoAlXFgvyTT1IvqkHwDBBBmhCkBd0f++benBohufCZ8gATXiHvCB/5BSSP3JKCUGGJMgADBPkhXz8+o/PP8CcBHlBriwgzfBcCPKCHh8FGQ7N8FwI8oKMepCMepQQZEiCDMAwQQZoQpAX5MoCkisLSriygOTKghJGPUhGPUoIMiRBBmCYIAM0IcgLcmUByZUFJVxZQHJlQQmjHiSjHiUEGZIgAzBMkAGaEOQFubKA5MqCEq4sILmyoIRRD5JRjxKCDEmQARgmyABNCPKCXFlAcmVBCVcWkFxZUMKoB8moRwlBhiTIAAwTZIAmBHlBriwgubKghCsLSK4sKGHUg2TUo4QgQxJkAIYJMkATgrwgVxaQXFlQwpUFJFcWlDDqQTLqUUKQIQkyAMMEGaAJQV7Qw4NRDw7N8FwI8oIEGZIgU8KoB8moRwlBhiTIAAwTZIAmBHlBRj1IRj1KCDIkQabE+blRDw7N8FwI8oIuLgQZDs3wXAgyQBOCDNCEIC/IqAfJqEcJQYYkyJTw1WlIvjpNCUGGJMgADBNkgCYEeUFGPUhGPUoIMiRBpoRRD5JRjxKCDEmQARgmyABNCPKCjHqQjHqUEGRIgkwJox4kox4lBBmSIAMwTJABmhDkBRn1IBn1KCHIkASZEkY9SEY9SggyJEEGYJggAzQhyAsy6kEy6lFCkCHN8Fzsn/70l6ftNQCF9qenZ4K8mKur693d3e32G/DJDM+FjywAmhBkgCYEeUFGPUhTjHo+QwbowTvkBV1evt5eAS9meC4EeUEnJ6+2V8CLGZ4LQQZoYn9z885nyAANeIcM0IQriwX5ph4k39QDYJggAzQhyAu6v/dNPTg0w3PhM2SAJrxDXpA/cgrJHzmlhCBDEmQAhgnyQj7+8OXzz9/e/nP7H2AmgryYs29/2V4B/2mGKwtBBo7C46MgA7Rg1ANoQpABGCbIAE0IMnAUXFkANOHKAqAJox5AE4IMwDBBBmhCkIGj4MoCoAlXFgBNGPUAmhBkAIYJMkATggwcBVcWAE24sgBowqgH0IQgAzBMkAGaEGTgKLiyAGjClQVAE0Y9gCYEGYBhggzQhCADR8GVBUATriwAmjDqATQhyAAME2SAJgQZOAquLACacGUB0IRRD6AJQQZgmCADNCHIwFF4eDDqAbQgyABNGPUAmhBkAIYJMkATggwcBaMeQBOCDNDE+blRD6CFiwtBBmCQIAM0IcjAUTDqATQhyABN+Oo0QBOCDMAwQQZoQpCBo2DUA2hCkAGaMOoBNCHIAAwTZIAmBBk4CkY9gCYEGaAJox5AE4IMwDBBBmhCkIGjYNQDaEKQAZow6gE0IcgADBNkgCYEGTgKRj2AJmYI8v7p73942l6zgLNvf9l9/OHL7TdgJvvT0zNBXszV1fXu7u52+w34ZIbnwkcWAE0IMkATgrygGcYL+NymGPV8hgzQg3fIC7q8fL29Al7M8FwI8oJOTl5tr4AXMzwXggzQxP7m5p3PkAHK7Xb/Ahk8AqozF1b/AAAAAElFTkSuQmCC;movable=0;resizable=0;rotatable=0;deletable=0;editable=0;locked=1;connectable=0;" vertex="1" parent="VO9uvYtOyiIi0N9G-no1-38">
          <mxGeometry width="216" height="242.08988764044946" as="geometry" />
        </mxCell>
        <mxCell id="VO9uvYtOyiIi0N9G-no1-23" value="&lt;font color=&quot;#ff0000&quot;&gt;SoF&lt;/font&gt;" style="text;html=1;align=center;verticalAlign=middle;whiteSpace=wrap;rounded=0;" vertex="1" parent="VO9uvYtOyiIi0N9G-no1-38">
          <mxGeometry x="6.067415730337079" y="14.486215538847118" width="36.40449438202248" height="21.729323308270676" as="geometry" />
        </mxCell>
        <mxCell id="VO9uvYtOyiIi0N9G-no1-60" value="" style="endArrow=classic;startArrow=classic;html=1;rounded=0;strokeColor=#ff0000;" edge="1" parent="VO9uvYtOyiIi0N9G-no1-38">
          <mxGeometry width="50" height="50" relative="1" as="geometry">
            <mxPoint x="160" y="90" as="sourcePoint" />
            <mxPoint x="40" y="90" as="targetPoint" />
          </mxGeometry>
        </mxCell>
        <mxCell id="VO9uvYtOyiIi0N9G-no1-61" value="&lt;font color=&quot;#ff0000&quot;&gt;10.52us&lt;/font&gt;" style="text;html=1;align=center;verticalAlign=middle;whiteSpace=wrap;rounded=0;" vertex="1" parent="VO9uvYtOyiIi0N9G-no1-38">
          <mxGeometry x="79.99741573033708" y="69.99621553884708" width="36.40449438202248" height="21.729323308270676" as="geometry" />
        </mxCell>
        <mxCell id="VO9uvYtOyiIi0N9G-no1-62" value="" style="endArrow=classic;startArrow=classic;html=1;rounded=0;strokeColor=#ff0000;" edge="1" parent="VO9uvYtOyiIi0N9G-no1-38">
          <mxGeometry width="50" height="50" relative="1" as="geometry">
            <mxPoint x="70" y="150" as="sourcePoint" />
            <mxPoint x="42.47" y="150" as="targetPoint" />
          </mxGeometry>
        </mxCell>
        <mxCell id="VO9uvYtOyiIi0N9G-no1-63" value="&lt;font color=&quot;#ff0000&quot;&gt;2.52us&lt;/font&gt;" style="text;html=1;align=center;verticalAlign=middle;whiteSpace=wrap;rounded=0;" vertex="1" parent="VO9uvYtOyiIi0N9G-no1-38">
          <mxGeometry x="29.99741573033708" y="119.99621553884708" width="36.40449438202248" height="21.729323308270676" as="geometry" />
        </mxCell>
        <mxCell id="VO9uvYtOyiIi0N9G-no1-39" value="" style="shape=image;verticalLabelPosition=bottom;labelBackgroundColor=default;verticalAlign=top;aspect=fixed;imageAspect=0;image=data:image/png,iVBORw0KGgoAAAANSUhEUgAAAP4AAAGSCAYAAADD13zEAAAAAXNSR0IArs4c6QAAAARnQU1BAACxjwv8YQUAAAAJcEhZcwAADsMAAA7DAcdvqGQAAAfmSURBVHhe7dwxambnAYVhKZvQgDQjXKiZNQgMswRjUBE8jQtXWUDcpPMOUrhw5da4Sj1gEGQD0xtpZh8TPLkhMQSS+Y9J5nCeB370/Qt4+XSPLjq/vLx6dwZM+d3xE6o8e/bJceIUwqeS8DPCh0HCh0HCp9LDw8/HiVNY9WGQG59Kxr2M8Kkk/IzwYZDwYZDwqWTVz1j1YZAbn0rGvYzwqST8jPBhkPBhkPCpZNXPWPVhkBufSsa9jPCpJPyM8GGQ8GGQ8Klk1c9Y9WGQG59Kxr2M8Kkk/IzwYZDwYZDwqWTVz1j1YZAbn0rGvYzwqST8jPBhkPBhkPCpZNXPWPVhkBufSsa9jPCpJPyM8GGQ8GGQ8Klk1c9Y9WGQG59Kxr2M8Kkk/IzwYZDwYZDwqfT4aNVPWPVhkBufSsa9jPCpJPyM8GGQ8GGQ8Klk1c9Y9WGQG59KT58a9xLCp9L1tfATwodBwodBwqeSVT9j1YdBbnwqeWU3I3wqCT8jfBgkfBgkfCpZ9TNWfRjkxqeScS8jfCoJPyN8GCR8GCR8Kln1M1Z9GOTGp5JxLyN8Kgk/I3wYJHwYJHwqWfUzVn0Y5ManknEvI3wqCT8jfBgkfBgkfCpZ9TNWfRh0/vr1a+HDGDc+lW5vX5zd3786vvGhPOPDIOHDIOFTyaqf8YwPg9z4VLq5eX6cOIXwqXRx8eQ4cQrhw6Dzu7uXnvFhjBsfBln1qeTNvYwbHwYJHwYJn0oPD97cS3jGh0FufCr5Z5sZ4VNJ+BnhwyDP+P+lH77+4jj92ufffH+c+F/yd/yMG/8D/BL5v374/7HqZ4RPpTdvhJ8QPpWMexnhU0n4GeHDIOHDIOFTyaqfET6VrPoZ4VPJuJcRPpWEnxE+DBI+DBI+laz6GeFTyaqfET6VjHsZ4VNJ+BnhwyDhwyDhU8mqnxE+laz6GeFTybiXET6VhJ8RPgwSPgwSPpWs+hnhU8mqnxE+lYx7GeFTSfgZ4cMg4cMg4VPJqp8RPpWs+hnhU8m4lxE+lYSfET4MEj4MEj6VrPoZ4VPJqp8RPpWMexnhU0n4GeHDIOHDIOFT6fHRuJcQPpWEnxE+lYx7GeFTSfgZ4cMg4cMg4VPJuJcRPpWEnxE+lZ4+Ne4lhE+l62vhJ4QPg4QPg4RPJeNeRvhUEn5G+FTyym5G+FQSfkb4MEj4MEj4VDLuZYRPJeFnhE8l415G+FQSfkb4MEj4MEj4VDLuZYRPJeFnhE8l415G+FQSfkb4MEj4MEj4VDLuZYRPJeFnhE8l415G+FQSfkb4MEj4MEj4VDLuZYRPJeFnzv/65z++O878B59/8/1x+rsfvv7iOEGX88vLK+FT5/b2xdn9/avjGx/Kr/owSPgwSPhUMu5lPOPDIDc+lW5unh8nTiF8Kl1cPDlOnEL4MOj87u6lZ3wY48aHQVZ9KnlzL+PGh0HCh0HCp9LDgzf3Ep7xYZAbn0r+2WZG+FQSfkb4MMgzPhXefvblcfqnqx+/O058KDc+NX4J/R8fMsKHQcKHQcKHQcKHQcKHQcKHQcKHQcKHQcKHQcKHQcKHQcKHQcKHQcKHQcKHQcKHQcKHQcKHQcKHQcKHQcKHQcKHQcKHQcKHQcKHQcKHQcKHQcKHQcKHQcKHQcKHQcKHQcKHQcKHQcKHQcKHQcKHQcKHQcKHQcKHQcKHQcKHQcKHQcKHQcKHQcKHQcKHQcKHQcKHQcKHQcKHQcKHQcKHQcKHQcKHQcKHQcKHQcKHQcKHQcKHQcKHQcKHQcKHQcKHQcKHQcKHQcKHQcKHQcKHQcKHQcKHQcKHQcKHQcKHQcKHQcKHQcKHQcKHQcKHQefv/vCnd8cZPmpXP353nM7O3n725XHiFOeXl1fCp87t7Yuz+/tXxzc+lF/1YZDwYZDwqfT4+PNx4hSe8WGQG59KNzfPjxOnED6VLi6eHCdOIXwYdH5399IzPoxx48Mgqz6VvLmXcePDIOHDIOFT6eHBm3sJz/gwyI1PpWfPPjlOnEL4VBJ+RvgwSPh8lN5+++mvPvy2hM9H6+qrn95//h2rfkb4VHrzRvgJ4VPJuJcRPpWEnxE+DBI+DBI+laz6GeFTyaqfET6VjHsZ4VNJ+BnhwyDhwyDhU8mqnxE+laz6GeFTybiXET6VhJ8RPgwSPgwSPpWs+hnhU8mqnxE+lYx7GeFTSfgZ4cMg4cMg4VPJqp8RPpWs+hnhU8m4lxE+lYSfET4MEj4MEj6VrPoZ4VPJqp8RPpWMexnhU0n4GeHDIOHDIOFTyaqfET6VrPoZ4VPJuJcRPpWEnxE+DBI+DBI+lR4fjXsJ4VNJ+BnhU8m4lxE+lYSfET4MEj4MEj6VjHsZ4VNJ+BnhU+npU+NeQvhUur4WfkL4MEj4MEj4VDLuZYRPJeFnhE8lr+xmhE8l4WeED4OED4OETyXjXkb4VBJ+RvhUMu5lhE8l4WeED4OED4OETyXjXkb4VBJ+RvhUMu5lhE8l4WeED4OED4OETyXjXkb4VBJ+RvhUMu5lhE8l4WeED4OED4OETyXjXkb4VBJ+5vzdX37/7jjDR+Xqq5/e/3z77afvf/LbOb+8vBI+dW5vX5zd3786vvGh/KoPg4QPg4RPJeNexjM+DHLjU+nm5vlx4hTCp9LFxZPjxCmED4PO7+5eesaHMW58GGTVh0FufBgkfBgkfBgkfBgkfJhzdvY3iNhpWLYRxuEAAAAASUVORK5CYII=;" vertex="1" parent="1">
          <mxGeometry x="60.5" y="830" width="195" height="308.62" as="geometry" />
        </mxCell>
        <mxCell id="VO9uvYtOyiIi0N9G-no1-40" value="&lt;font color=&quot;#ff0000&quot;&gt;SoF&lt;/font&gt;" style="text;html=1;align=center;verticalAlign=middle;whiteSpace=wrap;rounded=0;" vertex="1" parent="1">
          <mxGeometry x="79.99741573033708" y="909.9962155388471" width="36.40449438202248" height="21.729323308270676" as="geometry" />
        </mxCell>
        <mxCell id="VO9uvYtOyiIi0N9G-no1-42" value="" style="shape=image;verticalLabelPosition=bottom;labelBackgroundColor=default;verticalAlign=top;aspect=fixed;imageAspect=0;image=data:image/png,iVBORw0KGgoAAAANSUhEUgAABJAAAAGgCAYAAAD1kp0jAAAAAXNSR0IArs4c6QAAAARnQU1BAACxjwv8YQUAAAAJcEhZcwAADsMAAA7DAcdvqGQAAEXuSURBVHhe7d0JvF1lefDtJ6AMCYQ5YQyigAoCKoIUIioOUCe02lIn/FWttn07aT/bam21r1br61dt+1YrTlW0Dv2sLRUVqmLFQBEnJrECiqAyh1EiM9++19mbTCebELIX9519Xe3ynL3PEHL+edZZ+9lrr2fODjssuLv1YIcddmgHHXRQ23777drdgz/xZz/7Wfv617/efewJT3hC22WXXdqcOXPajTfe0L75zW91H2eyNp+7RbvrzjvarbfeMryHCh784Ae3hz70oW333Re17bbbrl1yyaXt9NNP7z621157tcc85tFts802b3feeWf70Y9+1P77v/+7+xj9in3aQQc9rs2fP7+7fe2117VvfeubbenSazegfd7yXx+xX5/d3Wv42Mydq39sbb7nbO7TJ3ce9KAHtUc9ar+20047to033rjdfvvt7Sc/+Wk7//zvtS222LIdcMD+beutt+4+9/rrr29nn31O+/nPb+putzZn+PbeDTKvYOWvW/6x1b/fzMdWvz+M+54bqq233qo9+clHDNps0c4999x21llntUc/+oD2yEc+sm2yySbttttua9///vcH9589/Ar6FL+XfumXDunG1cjll1/RvvrVrzrOSySOIR772Me0PfZ46OD9Bw3G0nndWHL8kMdzn3t022qrrYa3Zixb9ou2ZMnX28KFC+3zkojfP494xEyLu+66a3D88JN7jsft8/J4zGMeM+j08MH+bpN2yy2/aN/97lntwgsvtM+7HzaeN2/em4fvrzdbbDGvLVq0e5s7d/PBoJk52I6d4fOe9yttwYId2p57Pqztt9+j2tVXX90NrmOPfengF9lD2rbbbtMOOeSQwYOGu+0MexA7vHiEdscddwzvIZtotPvuu3eTEDfccEN33+Mf//j2q7/6gnbooYe2xz3ucd0BxDe+8Y3uwdVLXvLidsQRRwwO4GcOEOOA/oc//FG79tpru69lMmbb573whb/envnMZ7bBPnawf9uja3Xrrbe1LbfccgPa58XExcwWB0nLtxUnOFb/2IxVv27ma+L91T+24jb6vFW32T535S0OvLfbbvtuoij2e4985D7tOc95TnvYwx7WNtpoo+4gY+edd2o//elP2/7779eOPPLIQaNt24477tj23XffwQH8ze3SSy8dfr/Z/htiW/3PHdy7wt9n5c8bfSyseP/yj43un+1jo23DMds+b+Soo45qL3rRC7uJvWuuWdpN6h177LHdPjEmLeJtNI4HVD//+c3Dr2ISZtvnPfGJT+z6xD7u9tvv6PZ9cbA+f/5WjvMeILvuusvguHvh4Djh1sF2e3dfHCMcc8yvDfZx+w8eOG3WHSPExLjjhwfGbPu8GCM77LCgG0M77LB9e/KTn9w9YXjRRRe1F7zgBfZ5D4AFCxYMjg927vZdt9xyS3f72GNfNtjvHd61OPDAx7a99967O0aIYz77vAfGqvu8Pffcs73sZcd2J7HMnTu3GzPxeOnSS3/SPZayz1s3G2+xxRZvXvGgdH1sj3rUowYHES8aHHQvbN/+9ne6+171qt/szkI64YQTuomjgw8+uBtwEXq//fZrp512evvud7/TPciKWfeYAbzlllu7r91nn30Gv+yOGRzsP6Kdc8457elPf3p71rOeOfj6jbvvEZNTsXN9/OMP7iakrr76qvaLX9yy0n+TbfVtk0027SaQ7rzzjlk/bnvgtzioeMlLXtIe/vCHd2Mi7tttt926ZxDnz9+ye/9HP7q4nXHGGd0zUr/6q7/aTSi9973vHRzcL+oe9MYDre9973vd18Z9ceB44IEHDsbJNYOxum/7lV95Xjfm4kHzs5/9rO5B86GH/lL3/W699da2dOnSlf6bbKtvq+7zYqI8JiY22mjj9h//8R/d5xxwwAHdxEVMRtzbPi/2cfH1cUAZz4jEL7/Yv0WzRYt2G+zzntsOP/wJ3RlOcVAZz3rFs18r/jf1vw1/q3RmJjZW/fjM56x6/+hjM18z+8dH28znresWE3rxuycODq655pqu17x5c9v//M//tAsvvKjrGBNG8czUYYctbjvttFNbsmRJN4biwVb8vjnzzDPv+X5Pf3qMlUPbxhs/aHC7tWc84xndAeQPfvCD7v4nP/lJ3ViLZyhD/O5b/vdb/e8y87G4f+WPxf0z24xVP74hbbPt82KLJ53i/vj3Hvu/888/v3tw9Yxn/HK7/PLL24c+9OHu2eA4AIx94iWXXNJ93bjjh6uuuso+bx232Y7zDjnk8d04OeOMb7TPfOYz7bzzzhscjF/Ujj766A10n5d/iwm9Jz7xSd2/9SuuuKI7Bnj5y18+OHbYtZ188snti188qdvfxST6vR0/xBaTF0972lO78RO343gi/i3E2HrqU5862Mc+Y7DvPLT7fRfizxx9rW32bbZ9XuzTYlIoxtBDHvKQ7kyJOIMlnoS6P/s8j5nWfYt/2/FzjDES+6gYQ0cf/Zzu99HnPve5rtOuu+7aTUDEZIR93gOzrbrPiwmipz/9ad3P+PjjP9aNmdjfxRMfRxzxFI+Z1nHbaLAN3lm/W0wUxSlhcSA9ui9m/WLHFQMnnjWMlwvEgfr222/fPfP74x9f3C677PJucMRA2Wmnne/52niQHDvMOHU9bkf8Zz/72YOd7SO6wRyDLP7MRzziEV3YAw983D1faxuzDR+UzPoxW4ptm2226c6EiJ3a6L546cZnP/vZ7gAixtTGG2/U3R8vD91yyy26Z7D+53++350yG+MuJixGXxvjJH5pxRbvxxiKsRRjKh7w/vqv/3r3Z8VZGvFgOD5v9LW2NW+r7vNiP/epT326vf/9x7V4aUC8DCp2uFdeedVa7fOiRxyYxNu4Hfu+UbPnP/8F7Zd/+ajuZTzxSy32efvs88h7vnZ9b2tv5V8uM9vwQ524saaPz/axmY+vuI0+b123OGiIA4D4ecftOOg+6aSTB+Ns28GBxJO7g4If/vCH3ctCt9tu28HnzLzc+rrrru3GWjzTu+L3e9zjDuweNMVZtfE94wyMGEd7771X1++xj31sN8nxhCcsHjzoelr3THP8vZZ/j8H/Dt6s+Hde8WNh1Y8v/5y1M/P1dbbZ9nnxczv66Od2H4uDwmgRYyjGQ+zj4r4f/OB/Bg+CftGNi3hiavS1444f7PPWfVt1nxdb7Oc23XTT7gyxeDAUD1R33HGncvu8DWmLPtEpfo5xO8ZWnBURZ0PExHY8AIrxEROB93b8EFs8UBqNn/ie0ShaxRiKs27j2f3Y5z3lKUd0nzezz1v5v8m28jbbPi8mdS67bOblTvEy6zjj5fTTT7vf+zyPmdZ9iwmi2P/sssuu3e0rrriym+CLs/ie8pSndGckxfHDd7/7Xfu8B3BbdZ+3+eabdfuhcOWVV3RnJcU+KiZPPWZa922jwZvBj3T9bDEL/rrXva57FiP+0UfEt7zlre03fuM32ne+850u4K/92q8NdmDPGgTdvDsIjIONmWtP3DEYbHPuuS9Oix593xiEMcMbr9WO2/Fsb9yOr9tqq627nW8M3GXLlnUv5bngggvu+VrbmG3wLyD+Eax2vy3F9vu///vdM4Ux0brLLjt3Yynuu/nmm4eTsKNxMDMu4hTMGGNxYBi34/64Hb/cRt9zNMZmHoDF52x8z/eIM5riz9p22+0GX7Np94tx5rXcq/+32Wa2Ne3z4rTY2OfFM/Px7EccAMRExIknnrhW+7xV28a+b9QsGsUDtZjMiGdKTjvttO5AZvS163tbdfJi9m3wmcNtZbN97oqfNPvHB/8/3OJzl2+rf97abUce+fT2R3/0R92pzPFs3zOf+az2e7/3e91p5nEmUkwQxTNHMV7iFPX4nRK/o6LBXXfd3XWIcRQHHSt+39H4irEXZ5tFxzizM742DiDj+0SrOFU6rn8VY3PFr49t5u82Y9WPrfrxEHct31b//FW3ma+vsa1pnxf94lnYs88+u/385z8fjo2Nu59/bHfeeVf39aOxFNczGH3PcccP9nn3fRt3nBf7uDj7Ll7CEQfhceZRTCJV2+dtCFtMEkSX6BOdotcb3/jnbf/9D+hux74hXpIbEz5xXD66jsu444fYoslo/IxaRqvY58UD5NE+76KLfti+/vVTB99vZmzaZt/WtM8bfXzx4sXdhF+cJXb++d+/3/s8j5nu+/aUpzy1vfnNb+7OXo6fdUyOxu146VqcpRz3xaREjKn4vb9w4QL7vAdgW9M+L64d9rOfXdZN9Lz+9a9vcf3Y0fi4t33eqN2oSzQdNZv244f1egZSHEDHM7jxfvyQI8o222zdHXT/27/9e3vve/+xffOb3xwcrF/XxYi3cdGqCBavR5wzZ6Pu/vi6G264cYXvO3N/BFvxdrz91Kc+1Z2CG8H33DMuhhUXBnzIPV9rG78N/nfW+20P/BYX8Y0d3MyDwHiWauvuvtHHVxwHcTvGUnzuzMHhzMfjdpyeGbdntpmviS3eX/F7xMvgPvGJT7Rrr13aPdCOMzUe/ehHr/C1tlW3cfu8uC+ekX3hC1/YPcPxnve8p/3kJ5fep33eqG3s+0bNPvKRj7QlS07rDtbjTJd4XXccDI6+dhLbvYtPmtni39zK2+rfY/XPmfm85cZ9v/u+xbNK0SUaxc8+TuWPn39cPDtOM48HO5/5zL92L20b/duPttExrvUSXxcHf6uePh4HEjPfL34/zRxYxO2LL/7x4Hfev7XLLruse3lCXLwxfjdF++5v1/1MVv5vjG1FcXNmW/VzVtzGm/n6Otua9nnxzF48+xf7ozg4jJ/xk570xO7gOsbIVlvN774+GoR4YDT6nqOxNNvxg33efd/G7fPirIivf31J+/d///f2n//5n93H4mU5Ffd51beY0Iku8XOOTnFf/PxHD4LiZRYf/vA/dRN+8SB4dLHf8ccPM82Xd1o+ti688IL28Y9/vP34xz/uztSIsyWi08xxycr/bbbl27jjvNjnxUvN4mMzL336Rbvjjtu7n/267vM8ZrrvW/zuj8mc0ViKt3E7fn7xsqV4Qve4447rxlL82z/kkF+yz3sAtjXt8+KJjXe9613d76U463y0X7vxxmjhMdO6buv1DKSI9P73f6D91399rTvQjoOJd73r3e1f//Wz7corr+xixYxdPIMVZ1HEDz9enxiD86CDDu4uMhaDMq4TEd9r9H0jaPxjiAuRPe95z2sPe9hDu4BxX7w2MU6XjlMGr7ji8u61v/vss+9K/1222bfu/+JfwQr32fJsxx9/fHf9nLhuTjzrHmMp7ht9PP79j8ZB3I4xEwcR8Rrs5z//+d2D1rhQcLwufvQ10Tu+Ji5yGi+/efjD9+4e9Mb3iGdZ4mU2118fq0V8szsTI571H32tbfVt3D4v9lVxjZD42Z566qndL7c4FX1t9nmjtg996B7d94l9X9yOZ/Vjnxf3f/Wr/9Wdvh4TIPHLa8X/rvW9xb+b8dvgs1bYVjbb95jtc1f9nHvbln+Pe9viQe0HP/ih7kmL+MX/jW+c2Y2leOD0O7/z290zVaOXtsXPOX6u8bnxQDmeoY/ToUcPkFf8vjF2omv8ToprHsTnx31xvYM4lXl0kBGN4yy0uDZW/LcPvnrmrzyw4vdb8e838zmxLbf880bbij+P1bfBZ5Ta1rTPixVbP/nJT7Wvfe3UbjI2fq4xORcvD4jPjUmlGCfx0o14qcfFF198z/eMn0OMp9mOH+zz7vs2bp8XZ0vEzzhe1hlNYuI2HkhV3OdV3770pS93XaJPdIpe//AP72mnn/7f3fF37OviZVOxD4wHXHH8fG/HD7FFp3hgHNfkOfjgg7pjibgvHjTHNebCf/3Xf3X7wpkHvSu/7Ne28jbuOO+www7rOkSDuJZO3Bdj5v7s8zxmuu9bTN793d/9ffdEU/wM47pScfu8887tftbxbz0uoB1jKT4e15W1z+t/W9M+L66XePnllw3uu3uw39qz6xXXvTzzzG96zHQ/to0G/7vexE4sLvIVr9uNU+1iAMVOLd6GWEElftgRNp75iF9kcdARF4qLH/rznvfcdtNNN7WTTjqp+14joxm/+IX3qle9qntGN2YIY5DGdWBiYMbBeuxQYwnmCMla6B5gkFX8ovnpT382+Dd+RbfFWJr55TNj9Msn3oZ4MPX5z3+huy/GSbw851vf+tZgJ/rV7uNh9Oxj7AzjYphxwdPYYd51152D7/+jwYFk63aShx9+ePeSntjBsmbj9nnxOun4hRLPGj33uc9rf/Inf9Je/epXrdU+b9Q2Du6iZRyIxKnQcYZM/HKMA4znPOfZ3QFLrMoSL496YK38iyV+6a68rbq7Gfe5sc18/mib3czXr80Wk0HRKV6uFqeDX3XVld3Yimf44tTzuK7HK1/5yhan9sd9cbHSL3zhC4PPu7o96UlP6sZDXL/qK185ZaXvGwcS8UxuPFD65V/+5a5Z/PfGhYPjd1Q8Ozm69lEcdEbrVf+uK36/kbh7Zhv3ubFtWNa0z/vCF77YPvnJT3Rb/Azj5xz3x7g55ZSvdi8bePWrf6vrF5O1cZ24kXHHD/Z59924fV5c723TTTfpXkoQlyqIJw0/97kTN9B9Xm5xhtGoS3SKXvHAKI6P//3fT+iedR+9jDcWBvjEJz55r8cPITrFfi8u9juzUMRG3VgaXY8n+sW+MD7v29/+dnddEdZsTfu8+L0SF/6NcRD7pJg4D9Hv/uzzPGa67+IMozizLsZS/Pxii9uxWMDoycH4OcfJEeecc253hpd9Xv/WtM+LCfN46W5cbyou+B8v24wnQWKf5THTupuz0047x4v/1qs45T8uKBUDJc48GomZ8nhGKn7IMRMbUSNOXFQsviYOiGMnFwMnPjYSF32L1y3Gg4A/+qP/pwsX0eJ2zMTHTjIO0EP8mTG44/sw3rwttmx33nHn4Ge2bHgP2cRBRJzGHJOucVCxovjlEqdnxux37DBDzKzHgUXsEGdOl71hpTEYzxi+9a1v7T7+nve8t3tQG+Ig77rrru9eEjJ6jXbsJOMB9+jAhTWbbZ8Xp4XHAcGKYt8Xv9DubZ/3pje9qTvoOOWUU9pxx71/cOB3Z7dF5/g3ERd4jtOdo3F83ejZlcla/fvHfnjdLf/i+/d91l5M5kWTOEAb/f5ZuHDH7vdSTNDE9TriYHHp0mu73ykxHkYNo120XfF3y7ve9TfdakNxYBgv045xGi8xiAcE8WfNnBo9p/udFeM0DnBW1M0J3WPdJ4RW/j4jNSeYxu3zwsxxxOZdo9g/ja41FYsJxHVB4rgg7h8Zd/wQB/X2eetmtn1ejKPRGAuxjHJMwv7iF8uK7vPqi3/f8fNbuvSae5Z5X9Nxwr0dP4TjjntftzjAf/zH59qnP/3pe/Z5cd2r2JfGA63RPi+OKVYci8xutn1e/G5atGj3we+hB3djKH4vjdyffZ7HTOsufu7xOz1ajHrMtNh60GvmpW1xFlmc2RXs8x4Ys+3z4tqXcX8cd8YTGzEHET9Lj5nW3UQmkNa3eCb/z/7sDYNBdWX3zBbrx7wt5rc7B//gTSBNj3g5ztve9lfd+294w591M/Hk85d/+Zfdqhuf/ey/dQcZNc38aokD13W3dl98//6Mdfd//+/fd695j6VhP/jBDwzvnc36mByqOSH0QHP8UMOGsc/b8H3gA+/vXo4bS8jHdf3Ixz6vBvu8/DxmWrOJTCDNm7dFmz9/q3b55as/e7gu4lmtmCWMmdmYwWX92CImkAY/01/8YvmMOPnstNMug3/3Vw5a3TG8Z93FM8PxzFWIZ6PirAruv/nzZy4iu772eXGK+bx5c9vNNy9b6ZnHDcfyXzt9Tv4sXLhzu+22Wwb/9q8d3nP/xAoc8UxuPOsY27pYX2chbSji7IUdd9zZ8UNy2267fff7xD4vtzh+iH3TTTetn2fF4+yV6B5n78XG/RdnN+yww0L7vOQWLNixxcuZ7PNyi33ejTdev9LZXuvKY6Y1m7Pzzrus98P3mJhYtGiPdv75Zw/vISNnINVw4IGHtO9+95vdacjktPXW23Wnsv7gB+cP79mQzf4rY7ITQff+zdfmz3/Yw/YeHKhd15YuvXp4z7qb/WVjq5rchNCa//zak1AxgXTQQb/UzjwzLhpLVttvv2DwIHXr9sMfxhLgZPXwhz+qXXHFz9oNN1w3vIds4mVKBxzwuPad75wxvIeMdtxxl7bpppu1Sy754fAeMtp33wPaj3/8o3bzzSa4J2m9XkR7RfHaXOD+i2c84kEVucWFK6dD/FtcfYt/o6tvg48Mt/tn+Z+zpm32P3/lLRrNdv+6bLP9N6y+rbv4I5Zv9+XPr2+jjR40fI+sZv4dOs7LzrF4fjGWpuf4oa6Zfd7wBmnFYyYmbyJ7LAOshug080CEzDSqQabZxA9lZps5+Jptm/nZxTZp8YA3/swH2op/59V/HjPb4CMrbNNl5u9PdjrB+mEs1aBTDTpN3pz9D3jcRF94AACzm+XXz5jfSFV+WY09dJn1gw52AADIb84uu+w6kWPyxYuPaEuWnDK8RUY7LNi5XX3VZcNbZGUs1aBTfhrVoFMNOuWnUQ061aBTfhr1w4tuAQAAABjLBBIAAAAAY208f/78Nw/fX69iSeUbb7x+eIuUBo1uv/224Q2yMpZq0Ck/jWrQqQad8tOoBp1q0Ck/jfoxsWsgAQAAALBhmNhL2BYt2mP4HlnNm7fl8D0yM5Zq0Ck/jWrQqQad8tOoBp1q0Ck/jfphAmmKzTWBVIKxVINO+WlUg0416JSfRjXoVINO+WnUDxfRBgAAAGAsE0gAAAAAjGUVtmk2aGQVtvyMpRp0yk+jGnSqQaf8NKpBpxp0yk+jfliFDQAAAICxXER7ilmFrQZjqQad8tOoBp1q0Ck/jWrQqQad8tOoHyaQpphV2GowlmrQKT+NatCpBp3y06gGnWrQKT+N+uEi2gAAAACMZQIJAAAAgLGswjbNBo2swpafsVSDTvlpVINONeiUn0Y16FSDTvlp1A+rsAEAAAAwlotoTzGrsNVgLNWgU34a1aBTDTrlp1ENOtWgU34a9cME0hSzClsNxlINOuWnUQ061aBTfhrVoFMNOuWnUT9cRBsAAACAsUwgAQAAADCWVdim2aCRVdjyM5Zq0Ck/jWrQqQad8tOoBp1q0Ck/jfphFTYAAAAAxnIR7SlmFbYajKUadMpPoxp0qkGn/DSqQacadMpPo36YQJpiVmGrwViqQaf8NKpBpxp0yk+jGnSqQaf8NOqHi2gDAAAAMJYJJAAAAADGsgrbNBs0sgpbfsZSDTrlp1ENOtWgU34a1aBTDTrlp1E/rMIGAAAAwFguoj3FrMJWg7FUg075aVSDTjXolJ9GNehUg075adQPE0hTzCpsNRhLNeiUn0Y16FSDTvlpVINONeiUn0b9cBFtAAAAAMYygQQAAADAWFZhm2aDRlZhy89YqkGn/DSqQacadMpPoxp0qkGn/DTqh1XYAAAAABjLRbSnmFXYajCWatApP41q0KkGnfLTqAadatApP436YQJpilmFrQZjqQad8tOoBp1q0Ck/jWrQqQad8tOoHy6iDQAAAMBYJpAAAAAAGMsqbNNs0MgqbPkZSzXolJ9GNehUg075aVSDTjXolJ9G/bAKGwAAAABjuYj2FLMKWw3GUg065adRDTrVoFN+GtWgUw065adRP0wgTTGrsNVgLNWgU34a1aBTDTrlp1ENOtWgU34a9cNFtAEAAAAYywQSAAAAAGNZhW2aDRpZhS0/Y6kGnfLTqAadatApP41q0KkGnfLTqB9WYQMAAABgLBfRnmJWYavBWKpBp/w0qkGnGnTKT6MadKpBp/w06ocJpClmFbYajKUadMpPoxp0qkGn/DSqQacadMpPo364iDYAAAAAY5lAAgAAAGCsia3CFm64wVXQM5sz2KzCVoOxVINO+WlUg0416JSfRjXoVINO+Wk0eVZhAwAAAGAsF9GeYlZhq8FYqkGn/DSqQacadMpPoxp0qkGn/DTqhwmkKWYVthqMpRp0yk+jGnSqQaf8NKpBpxp0yk+jfriINgAAAABjmUACAAAAYCyrsE0xq7DVYSzVoFN+GtWgUw065adRDTrVoFN+Gk2eVdgAAAAAGGtiL2HbbTcXscpu7lwX0a7AWKpBp/w0qkGnGnTKT6MadKpBp/w06sfEJpB2313A7OZtYQKpAmOpBp3y06gGnWrQKT+NatCpBp3y06gfLqINAAAAwFgmkAAAAAAYyypsU8wqbHUYSzXolJ9GNehUg075aVSDTjXolJ9Gk2cVNgAAAADGmthL2BYtchGr7ObNcxHtCoylGnTKT6MadKpBp/w0qkGnGnTKT6N+mECaYnNNIJVgLNWgU34a1aBTDTrlp1ENOtWgU34a9cNFtAEAAAAYywQSAAAAAGNZhW2KWYWtDmOpBp3y06gGnWrQKT+NatCpBp3y02jyrMIGAAAAwFguoj3FrMJWg7FUg075aVSDTjXolJ9GNehUg075adQPE0hTzCpsNRhLNeiUn0Y16FSDTvlpVINONeiUn0b9cBFtAAAAAMYygQQAAADAWFZhm2JWYavDWKpBp/w0qkGnGnTKT6MadKpBp/w0mjyrsAEAAAAwlotoTzGrsNVgLNWgU34a1aBTDTrlp1ENOtWgU34a9cME0hSzClsNxlINOuWnUQ061aBTfhrVoFMNOuWnUT9cRBsAAACAsUwgAQAAADCWVdimmFXY6jCWatApP41q0KkGnfLTqAadatApP40mzypsAAAAAIzlItpTzCpsNRhLNeiUn0Y16FSDTvlpVINONeiUn0b9MIE0xazCVoOxVINO+WlUg0416JSfRjXoVINO+WnUDxfRBgAAAGAsE0gAAAAAjGUVtilmFbY6jKUadMpPoxp0qkGn/DSqQacadMpPo8mzChsAAAAAY80577zzTCABAAAAsEYTOwNp8eIj2pIlpwxvkdEOC3ZuV1912fAWWRlLNeiUn0Y16FSDTvlpVINONeiUn0b9cBFtAAAAAMYygQQAAADAWFZhm2JWYavDWKpBp/w0qkGnGnTKT6MadKpBp/w0mjyrsAEAAAAw1sRewrbXXvsM3yOrLedvM3yPzIylGnTKT6MadKpBp/w0qkGnGnTKT6N+TGwCaeHCHYfvkdVmm20+fI/MjKUadMpPoxp0qkGn/DSqQacadMpPo364iDYAAAAAY8055phjXQMJAAAAgDVyBhIAAAAAY01sFbbFi49oS5acMrw1GYceemj39vTTT+/ect/ssGDndvVVlw1vkVUfY4n7T6f8NKpBpxp0yk+jGnSqQaf8+mw0zfMQzkACAAAAYKzSE0hz5gzfGdphhwXdbODrXve64T0AAAAA993LXvaybo4h5hpGVp2HmCYTewnbbrvt0X7yk4uHtybnaU97attuu+3atttu3+bNmzu8t7XTTjtt+B5r8uAHb9Juv/224S2y2mqrrdsNN1w/vEVWOuWnUQ061aBTfhrVoFMNOuU3qUaHHXbY8L3Wbr55Wbv22mva0qVL25e+9OXhvdNlYhNIfTGBBMDaimeM7h781ltfbx9oa/vfOam369sNN9wwODC7bnhrw7L11lsNjlW2Gd4CACo49NDlE0jLli1rS5eaQJrAIWBrixbt0S69dLJnIMWpZHEQe9ppMxevitPK9tprz26W8J3vfGd3H2s2b96W7eabbxreIqs+xhL3n075aZTfJpts2rbccn677bYN7+zY2267td166y3DW/UZT/lpVINONeiU36QaxUvYLrzwwsF2Ubv66qu6+1adh5gmE7sGUgTsw4rPgEbQuBK6yaO1M3felsP3yKyvscT9o1N+GtUQk0jkZzzlp1ENOtWgU36TavTRj360m2MYTR6NTOJM7AqswgYApLXnng9rr3nNH7Z/+7d/baeddmp7znOePfxIa89//vPaqad+tZ1//rntrLO+3f72b//mnpezj/vYivbbb9/2pjf9efvCF05sX/7yf7ZDDjl4+BEAAFZUdgLpM294aXvtkx7WzQYCABumN7zh9e1lL3tp22WXndummy4/O2mPPXZvr3jFKwbvzWlve9vbB8cDZ7TDDz+8vfjFLxr7sVW9/e1v6yalFi5c2B784AcN7wUAmF3MQ8QWcxLTZmITSJdc4jWi2d38c9c/qsBYqkGn/DSqIa4VtKJ3vOP/tMMOe0I777zvDe+Z8ahHPaptv/12g/vPbR//+CfaSSed1O6666726EcfMPZjq3r969/QDjzw4Hb55ZcN71ldnJX0ta+d0k488YSVbn/4wx/sbv/pn/5xO+OM09r3v39e9/Z3f/d3uvs3ZMZTfhrVoFMNOuXXd6MXvO1jw/emy8QmkPpYwp/7Z9kyE0gVGEs16JSfRjWsegHtH/zggm7Z3FXNmbNR22ijjdrSpdd2t6+66srB593cNtts87EfW9W55648MXVfHXXUke3oo49uF1xwQfvN33x1u+aaa9oxxxzTDj988fAzNkzGU34a1aBTDTrlp1E/yl9Em3UXq7CRn7FUg075aVTDJptsMnyvlq233rpttNGc9ta3/lV7+9v/ul1wwYXDj2yYjKf8NKpBpxp0yk+jfphAmmJWYavBWKpBp/w0qqHaKmwnnXRyO+GEE9qCBQva+973j+3d735323///doVV1w5/IwNk/GUn0Y16FSDTvlp1I+yF9EGAKbX3Xff1V3XaLvttu1uL1iwsM2bN6/dcssvxn5sfYtV4s4559z2kpcc2/7gD/6wXXvttd1L2uKlbQAAGxITSABAOeedd167/PLL23777d9e+cqXt6OOOqq77tFZZ5099mMHH3xQ+8AHjmsvfvELh99p7cVZRnGB7Gc+8xltq6226u57whMWt7e85X+3P/7j17XrrruuLV16TXc/AMCGZmITSK5Un59V2GowlmrQKT+Nalh1FbY1ufjiS9rxx3+sO9vota99TTv00EPaqaee2v75nz8x9mP77rtPe+xjH9MOOGD/4Xdae3Pnzm2/8zu/3Y488sh25513dff90z99tJ144ontwAMf2z72sePb3nvv3b2kLV7atiEznvLTqAadatApP436MWeXXXa9e/h+KZ95w0u7t9O6fB4AbGji+kebbrrZ8FYesWz/O97x1+2mm25qz3rW0cN775uYGLv11luGtwCAqmIuIuYhRm+niYtoTzGrsNVgLNWgU34a1VB1FbZpYzzlp1ENOtWgU34a9cME0hSzClsNxlINOuWnUX533313ylXYzjjjzPbEJx6xzmcfzSh5wvcaGU/5aVSDTjXolJ9G/XARbQAghbvuuqPNnTtveGvDceedd7Q77rhjeAsAoCYTSABACnFh6p122qXddNMNG9S2bNnNg7/bncO/JQBATVZhm2JWYavBWKpBp/w0qkGnGnTKT6MadKpBp/w06sfEJpB+8hMBs1u2zARSBcZSDTrlp1ENOtWgU34a1aBTDTrlp1E/XER7ilmFrQZjqQad8tOoBp1q0Ck/jWrQqQad8tOoHyaQpphV2GowlmrQKT+NatCpBp3y06gGnWrQKT+N+uEi2gAAAACMZQIJAAAAgLEmNoHkKuj5WYWtBmOpBp3y06gGnWrQKT+NatCpBp3y06gfE5tAchX0/KzCVoOxVINO+WlUg0416JSfRjXoVINO+WnUDxfRnmJWYavBWKpBp/w0qkGnGnTKT6MadKpBp/w06ocJpClmFbYajKUadMpPoxp0qkGn/DSqQacadMpPo364iDYAAAAAY5lAAgAAAGCsiU0guQp6flZhq8FYqkGn/DSqQacadMpPoxp0qkGn/DTqx8QmkFwFPT+rsNVgLNWgU34a1aBTDTrlp1ENOtWgU34a9cNFtKeYVdhqMJZq0Ck/jWrQqQad8tOoBp1q0Ck/jfphAmmKWYWtBmOpBp3y06gGnWrQKT+NatCpBp3y06gfLqINAAAAwFgmkAAAAAAYa2ITSK6Cnp9V2GowlmrQKT+NatCpBp3y06gGnWrQKT+N+jGxCSRXQc/PKmw1GEs16JSfRjXoVINO+WlUg0416JSfRv1wEe0pZhW2GoylGnTKT6MadKpBp/w0qkGnGnTKT6N+mECaYlZhq8FYqkGn/DSqQacadMpPoxp0qkGn/DTqh4toAwAAADCWCSQAAAAAxprYBJKroOdnFbYajKUadMpPoxp0qkGn/DSqQacadMpPo35MbALJVdDzswpbDcZSDTrlp1ENOtWgU34a1aBTDTrlp1E/XER7ilmFrQZjqQad8tOoBp1q0Ck/jWrQqQad8tOoHyaQpphV2GowlmrQKT+NatCpBp3y06gGnWrQKT+N+uEi2gAAAACMZQIJAAAAgLEmNoF06aUuYpXdsptdRLsCY6kGnfLTqAadatApP41q0KkGnfLTqB8mkKbYzSaQSjCWatApP41q0KkGnfLTqAadatApP4364SLaU8wqbDUYSzXolJ9GNehUg075aVSDTjXolJ9G/TCBNMWswlaDsVSDTvlpVINONeiUn0Y16FSDTvlp1A8X0QYAAABgLBNIAAAAAIzlItpTzCpsNRhLNeiUn0Y16FSDTvlpVINONeiUn0b9MIE0xazCVoOxVINO+WlUg0416JSfRjXoVINO+WnUj4lNIO22m4tYZTd3rotoV2As1aBTfhrVoFMNOuWnUQ061aBTfhr1Y2ITSLvvLmB287YwgVSBsVSDTvlpVINONeiUn0Y16FSDTvlp1A8X0QYAAABgLBNIAAAAAIzlItpTzCpsNRhLNeiUn0Y16FSDTvlpVINONeiUn0b9MIE0xazCVoOxVINO+WlUg0416JSfRjXoVINO+WnUj4lNIC1a5CJW2c2b5yLaFRhLNeiUn0Y16FSDTvlpVINONeiUn0b9MIE0xeaaQCrBWKpBp/w0qkGnGnTKT6MadKpBp/w06oeLaAMAAAAwlgkkAAAAAMZyEe0pZhW2GoylGnTKT6MadKpBp/w0qkGnGnTKT6N+mECaYlZhq8FYqkGn/DSqQacadMpPoxp0qkGn/DTqh4toTzGrsNVgLNWgU34a1aBTDTrlp1ENOtWgU34a9cME0hSzClsNxlINOuWnUQ061aBTfhrVoFMNOuWnUT9cRBsAAACAsUwgAQAAADCWi2hPMauw1WAs1aBTfhrVoFMNOuWnUQ061aBTfhr1wwTSFLMKWw3GUg065adRDTrVoFN+GtWgUw065adRP1xEe4pZha0GY6kGnfLTqAadatApP41q0KkGnfLTqB8mkKaYVdhqMJZq0Ck/jWrQqQad8tOoBp1q0Ck/jfrhItoAAAAAjGUCCQAAAICxXER7ilmFrQZjqQad8tOoBp1q0Ck/jWrQqQad8tOoHyaQpphV2GowlmrQKT+NatCpBp3y06gGnWrQKT+N+uEi2lPMKmw1GEs16JSfRjXoVINO+WlUg0416JSfRv0wgTTFrMJWg7FUg075aVSDTjXolJ9GNehUg075adQPF9EGAAAAYCwTSAAAAACM5SLaU8wqbDUYSzXolJ9GNehUg075aVSDTjXolJ9G/TCBNMWswlaDsVSDTvlpVINONeiUn0Y16FSDTvlp1I85//2e1989fB8AAACAMV7wto+1z7zhpcNb02POLrvsOpEJpMWLj2hLlpwyvDUZhx56aPf29NNP795y3+ywYOd29VWXDW+RVR9jiftPp/w0qkGnGnTKT6MadKpBp/z6bjStcxEuog0AAADAWKUnkObMGb4ztMMOC7qZwNe97nXDewAAAADWzcte9rJuniHmG0ZWnYuYFhN7CduiRXv0ciGrpz3tqW277bZr2267fZs3b+7w3tZOO+204XusySabbNJuu+224S2y2mqrrdsNN1w/vEVWOuWnUQ061aBTfhrVoFMNOuU3yUaHHXbY8L1YiGpZu/baa9rSpUvbl7705eG902NiE0h9GU0gbbfd9m3u3OUTSKefflq7e/A3i5nB9fH2gba2/5339W0Wa/vfu7Zvq1jbv8/obRVr+/cZve1b/Ll96Pvv5u91/8z2b3OSb/uytv896+vturj00p+2O+64Y3hrOixatGt70IMeNLwFAGR16KHLJ5CWLVvWli41gbTe7bXXPu3CC88f3pqMOI0sDlZPO23mwlVxStlee+3ZzRC+853v7O5jzbacv0276cbrhrfIqo+xxP2nU34a5TVv3pZto41mXlW/2WabtVtuuaV7f0N28803tbvuumt4qx7jKT+NatCpBp3ym2SjeAnbRRdd2C644KJ29dVXdfetOhcxLSZ2DaSFC3ccvjdZ8YznSMSMq6CbPFo7m222+fA9MutrLHH/6JSfRjU86EEPHr5HZsZTfhrVoFMNOuU3yUYf/ehHu4mi0eTRyIpzEdPCKmwAQCpxTcMXvvCY9qEPfbCdccZp7S1vefPwI60dfvji9vnPf66df/657dxzz2of+ciH2p57Pqz72POf/7x26qlf7T521lnfbn/7t3+z0vURR+LzvvSlk7vPO++8s9snP/nxe75HeP7zf6V98Ysndh97y1v+cngvAMB0m3PMMcdO4bwZAJBFLLpx++23D2+19upX/2Z76Utf3G699da2xRZbtM997sT21re+vfvY+9//jy1erv6JT3yq7bjjwnbkkU9vJ574hfbJT36y/c3f/L9t3rx57SMf+Wh7/OMPbgcd9Lj2oQ/90+D28d3Xhv32e1R7y1v+d9t00wcPvubT7ZGPfHh70pOe1L7yla+2N77xL7rJpf/1v3673XTTzwff9/Pdmc3f+973h1+9/uy++x7OtgIASnEGEgCQSkzcHHPMi9q//Mtn2p133jm8t7XHPOaAtssuO7ef/vRn7QMf+FA76aST24033tj23Xef9shHPrJtt9227fzzz2+f/vT/17785a901xiKCaMV7bTTjm3TTTdpZ5xxZjv++I+3E074XLv++hvaNtts0308JqRi4uod7/g/3Z8x2+RRTHCdfvqp7Y1vfP09t7/2ta90b8NrXvMH7StfObl985v/3b191ate2d0PAFDZxC6ivXjxEW3JklOGt8hohwU7t6uvumx4i6yMpRp0yk+jvFa8iPYWW2zZfv7zm7r3f//3f7e98pWvaCec8B/tz//8Te2QQw5u73jHX7cf/vBH7eUvn5mUOfHEE7q373//B9tf/MUb2xe/eNIaP3c2Mbnz27/9W+3zn//C4Hud2H1NrI62+eabdxf0Puecc7ozky666IfDr1j9vytuH3vsS9vxx3+sXXDBhe1Nb/qLduGFF3T/TX/6p3/cLS38Z3/2Z+3UU5cMv0P9i2gbT/lpVINONeiUn0b9cAYSADCV4npKL3rRC9v111/fTR4tWLCwewlcnPX03vf+Yzv55JPbvvvu237rt149/Iq1t/XWW7eNNprT3vrWv2pvf/tfdxNLAACVmUACAKZOXDT7ta99bXem0XHHvb97SdtInG30wQ9+uH3mM//arrvu+u6aS2srXlZ3wgkntAULFrT3ve8f27vf/e62//77tSuuuHL4GQAANU1sAumSSy4evkdWNw9fIkBuxlINOuWnUQ233Xbr8L3V3XHHHe3uu+9uW201v7sdL1Pbcsstu2sW3X33Xd1LwuI6SGF0NtEtt/yiu72iWJnt9a9/fdt990XdhbQ/9al/6e6/6aabBp9/S3fmUIgzkeL73hcxMXXOOee2l7zk2PYHf/CH7dprr21HH310O+qoI4efsWEwnvLTqAadatApP436MbEJpJ/8RMDsli0zgVSBsVSDTvlpVMNtt902fG913/rWd9qPfnRx23333dtrXvOH7VnPelabP39+N2Fz3nnntcsvv7ztt9/+7ZWvfHk76qijuusqnXXW2e3ggw9qH/jAce3FL35hN3n0d3/3t+2ggw5sJ5/8n4Pv96P2nOc8ux155NPamWee2b3UbJ999um+/zHH/Frbdtu4MPfsq7A99rGPab/+67/WHv/4x7cHP3hmRbUnPGFxt8rbH//x69p1113Xli69prt/Q2M85adRDTrVoFN+GvVjYhNIixbtMXyPrOKipeRnLNWgU34a1bDJJpsM35vdRz7ykXbllVe13/zNV7Sjj35OO/vss9s///Mn2sUXX9JdxDrOGHrta1/TDj30kHbqqad2H4tV2mKy54AD9u9WZYuXpMWET3z9O97x9m57wxte333sfe87rl1yyaXtFa/4jfaUpzylfeMbZ7YPfejDwz99ZYsWLWp/8Rd/3h7ykN3vWS3un/7po931lA488LHtYx87vu29997dS9ripW0bEuMpP41q0KkGnfLTqB9WYZtiVmGrwViqQaf8NMprTauwZbXqKmzrwipsTJpGNehUg075adQPF9EGAAAAYKypn0D66a+8YvgeAPBAuOuumZd/VfH3f/8Pbf/9H7POZx+FOXM8hwcA91c8nveYvj8TO3pxFfT8rMJWg7FUg075aZTX7bffPnxv/CpsG4a72q233tLuvPOO4e2ajKf8NKpBpxp0yk+jfkzsGkhVxGzlrp/90PAWAAAAUMHo7COP6fsxsTOQXAU9P6uw1WAs1aBTfhrVoFMNOuWnUQ061aBTfhr1wwTSFJtrAqkEY6kGnfLTqAadatApP41q0KkGnfLTqB+u4AgAAADAWCaQAAAAABjLKmxTzCpsNRhLNeiUn0Y16FSDTvlpVINONeiUn0b9sAqbVdgAAACgHKuw9ctFtKeYVdhqMJZq0Ck/jWrQqQad8tOoBp1q0Ck/jfphAmmKWYWtBmOpBp3y06gGnWrQKT+NatCpBp3y06gfLqINAAAAwFgmkAAAAAAYyypsU8wqbDUYSzXolJ9GNehUg075aVSDTjXolJ9G/bAKm1XYAAAAoByrsPXLRbSnmFXYajCWatApP41q0KkGnfLTqAadatApP436YQJpilmFrQZjqQad8tOoBp1q0Ck/jWrQqQad8tOoHy6iDQAAAMBYJpAAAAAAGMsqbFPMKmw1GEs16JSfRjXoVINO+WlUg0416JSfRv2wCptV2AAAAKAcq7D1y0W0p5hV2GowlmrQKT+NatCpBp3y06gGnWrQKT+N+mECaYpZha0GY6kGnfLTqAadatApP41q0KkGnfLTqB8uog0AAADAWCaQAAAAABjLKmxTzCpsNRhLNeiUn0Y16FSDTvlpVINONeiUn0b9sAqbVdgAAACgHKuw9ctFtKeYVdhqMJZq0Ck/jWrQqQad8tOoBp1q0Ck/jfphAmmKWYWtBmOpBp3y06gGnWrQKT+NatCpBp3y06gfLqINAAAAwFgmkAAAAAAYyypsU8wqbDUYSzXolJ9GNehUg075aVSDTjXolJ9G/bAKm1XYAAAAoByrsPXLRbSnmFXYajCWatApP41q0KkGnfLTqAadatApP436YQJpilmFrQZjqQad8tOoBp1q0Ck/jWrQqQad8tOoHy6iDQAAAMBYJpAAAAAAGMsqbFPMKmw1GEs16JSfRjXoVINO+WlUg0416JSfRv2wCptV2AAAAKAcq7D1y0W0p5hV2GowlmrQKT+NatCpBp3y06gGnWrQKT+N+mECaYpZha0GY6kGnfLTqAadatApP41q0KkGnfLTqB8uog0AAADAWCaQAAAAABhrYhNIl17qKujZLbvZKmwVGEs16JSfRjXoVINO+WlUg0416JSfRv2wCptV2AAAAKAcq7D1y0W0p5hV2GowlmrQKT+NatCpBp3y06gGnWrQKT+N+mECaYpZha0GY6kGnfLTqAadatApP41q0KkGnfLTqB8uog0AAADAWCaQAAAAABjLKmxTzCpsNRhLNeiUn0Y16FSDTvlpVINONeiUn0b9sAqbVdgAAACgHKuw9WtiZyDttpuLWGU3d66LaFdgLNWgU34a1aBTDTrlp1ENOtWgU34a9WNiE0i77y5gdvO2MIFUgbFUg075aVSDTjXolJ9GNehUg075adQPF9EGAAAAYCwTSAAAAACMZRW2KWYVthqMpRp0yk+jGnSqQaf8NKpBpxp0yk+jfliFzSpsAAAAUI5V2Po1sTOQFi1yEavs5s1zEe0KjKUadMpPoxp0qkGn/DSqQacadMpPo36YQJpic00glWAs1aBTfhrVoFMNOuWnUQ061aBTfhr1w0W0AQAAABjLBBIAAAAAY1mFbYpZha0GY6kGnfLTqAadatApP41q0KkGnfLTqB9WYbMKGwAAAJRjFbZ+uYj2FLMKWw3GUg065adRDTrVoFN+GtWgUw065adRP0wgTTGrsNVgLNWgU34a1aBTDTrlp1ENOtWgU34a9cNFtAEAAAAYywQSAAAAAGNZhW2KWYWtBmOpBp3y06gGnWrQKT+NatCpBp3y06gfVmGzChsAAACUYxW2frmI9hSzClsNxlINOuWnUQ061aBTfhrVoFMNOuWnUT9MIE0xq7DVYCzVoFN+GtWgUw065adRDTrVoFN+GvXDRbQBAAAAGMsEEgAAAABjWYVtilmFrQZjqQad8tOoBp1q0Ck/jWrQqQad8tOoH1ZhswobAAAAlGMVtn65iPYUswpbDcZSDTrlp1ENOtWgU34a1aBTDTrlp1E/TCBNMauw1WAs1aBTfhrVoFMNOuWnUQ061aBTfhr1w0W0AQAAABjLBBIAAAAAY1mFbYpZha0GY6kGnfLTqAadatApP41q0KkGnfLTqB9WYbMKGwAAAJRjFbZ+zbn799401RNIAAAAAIw3sTOQFi8+oi1ZcsrwFhntsGDndvVVlw1vkZWxVINO+WlUg0416JSfRjXoVINO+WnUDxfRBgAAAGAsE0gAAAAAjLXx/Pnz3zx8f7274Ybrh++R0ZzBdvvtt83cIDVjqQad8tOoBp1q0Ck/jWrQqQad8tNo8qZ+FTYAAAAAxpvYS9j22muf4XtkteX8bYbvkZmxVINO+WlUg0416JSfRjXoVINO+WnUj4lNIC1cuOPwPbLabLPNh++RmbFUg075aVSDTjXolJ9GNehUg075adQPF9EGAAAAYKw5xxxzrGsgAQAAALBGzkACAAAAYKyJrcK2ePERbcmSU4a3yGiHBTu3q6+6bHiLrIylGnTKT6MadKpBp/w0qkGnGnTKT6N+OAMJAAAAgLFMIAEAAAAw1sbz589/8/D99eruu1u78cbrh7dIadDo9ttvG94gK2OpBp3y06gGnWrQKT+NatCpBp3y06gfE7sGEgAAAAAbhom9hG3Roj2G75HVvHlbDt8jM2OpBp3y06gGnWrQKT+NatCpBp3y06gfJpCm2FwTSCUYSzXolJ9GNehUg075aVSDTjXolJ9G/XARbQAAAADGmuoJpJ8e98RuAwAAAOrweL5/E5tAuuSSi4fvkdXNP79p+B6ZGUs16JSfRjXoVINO+WlUg0416JSfRv2Y6lXYRrOVu776a91bAAAAID+P5/vnItpTzCpsNRhLNeiUn0Y16FSDTvlpVINONeiUn0b9MIE0xazCVoOxVINO+WlUg0416JSfRjXoVINO+WnUD6uwAQAAADCWCSQAAAAAxrIK2xSzClsNxlINOuWnUQ061aBTfhrVoFMNOuWnUT+swjbgqu0AAABQh8fz/XMR7SlmFbYajKUadMpPoxp0qkGn/DSqQacadMpPo36YQJpiVmGrwViqQaf8NKpBpxp0yk+jGnSqQaf8NOqHi2gDAAAAMJYJJAAAAADGsgrbFLMKWw3GUg065adRDTrVoFN+GtWgUw065adRP6zCNuCq7QAAAFCHx/P9cxHtKWYVthqMpRp0yk+jGnSqQaf8NKpBpxp0yk+jfphAmmJWYavBWKpBp/w0qkGnGnTKT6MadKpBp/w06oeLaAMAAAAwlgkkAAAAAMayCtsUswpbDcZSDTrlp1ENOtWgU34a1aBTDTrlp1E/rMI24KrtAAAAUIfH8/1zEe0pZhW2GoylGnTKT6MadKpBp/w0qkGnGnTKT6N+mECaYlZhq8FYqkGn/DSqQacadMpPoxp0qkGn/DTqh4toAwAAADCWCSQAAAAAxrIK2xSzClsNxlINOuWnUQ061aBTfhrVoFMNOuWnUT+swjbgqu0AAABQh8fz/XMR7SlmFbYajKUadMpPoxp0qkGn/DSqQacadMpPo36YQJpiVmGrwViqQaf8NKpBpxp0yk+jGnSqQaf8NOqHi2gDAAAAMJYJJAAAAADGsgrbFLMKWw3GUg065adRDTrVoFN+GtWgUw065adRP6zCNuCq7QAAAFCHx/P9cxHtKWYVthqMpRp0yk+jGnSqQaf8NKpBpxp0yk+jfphAmmJWYavBWKpBp/w0qkGnGnTKT6MadKpBp/w06oeLaAMAAAAwlgkkAAAAAMayCtsUswpbDcZSDTrlp1ENOtWgU34a1aBTDTrlp1E/rMI24KrtAAAAUIfH8/1zEe0pZhW2GoylGnTKT6MadKpBp/w0qkGnGnTKT6N+mECaYlZhq8FYqkGn/DSqQacadMpPoxp0qkGn/DTqh4toAwAAADCWCSQAAAAAxprYBNKll7oKenbLbrYKWwXGUg065adRDTrVoFN+GtWgUw065adRP6zCNuCq7QAAAFCHx/P9cxHtKWYVthqMpRp0yk+jGnSqQaf8NKpBpxp0yk+jfphAmmJWYavBWKpBp/w0qkGnGnTKT6MadKpBp/w06oeLaAMAAAAwlgkkAAAAAMayCtsUswpbDcZSDTrlp1ENOtWgU34a1aBTDTrlp1E/rMI24KrtAAAAUIfH8/2b2BlIu+3mIlbZzZ3rItoVGEs16JSfRjXoVINO+WlUg0416JSfRv2Y2ATS7rsLmN28LUwgVWAs1aBTfhrVoFMNOuWnUQ061aBTfhr1w0W0AQAAABjLBBIAAAAAY1mFbYpZha0GY6kGnfLTqAadatApP41q0KkGnfLTqB9WYRtw1XYAAACow+P5/k3sDKRFi1zEKrt581xEuwJjqQad8tOoBp1q0Ck/jWrQqQad8tOoHyaQpthcE0glGEs16JSfRjXoVINO+WlUg0416JSfRv1wEW0AAAAAxjKBBAAAAMBYVmGbYlZhq8FYqkGn/DSqQacadMpPoxp0qkGn/DTqh1XYBly1HQAAAOrweL5/LqI9xazCVoOxVINO+WlUg0416JSfRjXoVINO+WnUDxNIU8wqbDUYSzXolJ9GNehUg075aVSDTjXolJ9G/XARbQAAAADGMoEEAAAAwFhWYZtiVmGrwViqQaf8NKpBpxp0yk+jGnSqQaf8NOqHVdgGXLUdAAAA6vB4vn8uoj3FrMJWg7FUg075aVSDTjXolJ9GNehUg075adQPE0hTzCpsNRhLNeiUn0Y16FSDTvlpVINONeiUn0b9cBFtAAAAAMYygQQAAADAWFZhm2JWYavBWKpBp/w0qkGnGnTKT6MadKpBp/w06odV2AZctR0AAADq8Hi+fy6iPcWswlaDsVSDTvlpVINONeiUn0Y16FSDTvlp1A8TSFPMKmw1GEs16JSfRjXoVINO+WlUg0416JSfRv1wEW0AAAAAxjKBBAAAAMBYVmGbYlZhq8FYqkGn/DSqQacadMpPoxp0qkGn/DTqh1XYBly1HQAAAOrweL5/c+4+8cVTO4EEAAAAwL2b2BlIixcf0ZYsOWV4i4x2WLBzu/qqy4a3yMpYqkGn/DSqQacadMpPoxp0qkGn/DTqh4toAwAAADCWCSQAAAAAxtp4/vz5bx6+v97dcMP1w/fIaM5gu/3222ZukJqxVINO+WlUg0416JSfRjXoVINO+Wk0eVO9ChsAAAAA925iL2Hba699hu+R1Zbztxm+R2bGUg065adRDTrVoFN+GtWgUw065adRPyY2gbRw4Y7D98hqs802H75HZsZSDTrlp1ENOtWgU34a1aBTDTrlp1E/XEQbAAAAgLHmHHPMsa6BBAAAAMAaOQMJAAAAgLGswgYAAADAGK39/4+3E7n7Tw2IAAAAAElFTkSuQmCC;movable=0;resizable=0;rotatable=0;deletable=0;editable=0;locked=1;connectable=0;" vertex="1" parent="1">
          <mxGeometry x="290" y="849" width="760.88" height="271" as="geometry" />
        </mxCell>
        <mxCell id="VO9uvYtOyiIi0N9G-no1-55" value="&lt;font color=&quot;#ff0000&quot;&gt;CTE start&lt;/font&gt;" style="text;html=1;align=center;verticalAlign=middle;whiteSpace=wrap;rounded=0;" vertex="1" parent="1">
          <mxGeometry x="330" y="940" width="60" height="30" as="geometry" />
        </mxCell>
        <mxCell id="VO9uvYtOyiIi0N9G-no1-56" value="" style="endArrow=classic;startArrow=classic;html=1;rounded=0;strokeColor=#ff0000;" edge="1" parent="1">
          <mxGeometry width="50" height="50" relative="1" as="geometry">
            <mxPoint x="340" y="1040" as="sourcePoint" />
            <mxPoint x="980" y="1040" as="targetPoint" />
          </mxGeometry>
        </mxCell>
        <mxCell id="VO9uvYtOyiIi0N9G-no1-57" value="&lt;font color=&quot;#ff0000&quot;&gt;95.78us&lt;/font&gt;" style="text;html=1;align=center;verticalAlign=middle;whiteSpace=wrap;rounded=0;" vertex="1" parent="1">
          <mxGeometry x="604" y="1010" width="60" height="30" as="geometry" />
        </mxCell>
        <mxCell id="VO9uvYtOyiIi0N9G-no1-58" value="" style="endArrow=classic;startArrow=classic;html=1;rounded=0;strokeColor=#ff0000;" edge="1" parent="1">
          <mxGeometry width="50" height="50" relative="1" as="geometry">
            <mxPoint x="340" y="1090" as="sourcePoint" />
            <mxPoint x="980" y="1090" as="targetPoint" />
          </mxGeometry>
        </mxCell>
        <mxCell id="VO9uvYtOyiIi0N9G-no1-59" value="&lt;font color=&quot;#ff0000&quot;&gt;95.78us&lt;/font&gt;" style="text;html=1;align=center;verticalAlign=middle;whiteSpace=wrap;rounded=0;" vertex="1" parent="1">
          <mxGeometry x="604" y="1060" width="60" height="30" as="geometry" />
        </mxCell>
      </root>
    </mxGraphModel>
  </diagram>
</mxfile>
